<svg xmlns="http://www.w3.org/2000/svg" width="20" height="20" viewBox="0 0 20 20" id="message"><g fill="none" fill-rule="evenodd" stroke-linecap="round" stroke-linejoin="round"><g stroke="#ececec" stroke-width="2" transform="translate(-1687 -1753)"><g transform="translate(1688 1754)"><path d="M18 8.5a8.38 8.38 0 0 1-.9 3.8A8.5 8.5 0 0 1 9.5 17a8.38 8.38 0 0 1-3.8-.9L0 18l1.9-5.7A8.38 8.38 0 0 1 1 8.5 8.5 8.5 0 0 1 5.7.9 8.38 8.38 0 0 1 9.5 0h.5a8.48 8.48 0 0 1 8 8v.5z"></path></g></g></g></svg>