<?xml version="1.0" encoding="UTF-8"?><svg id="Layer_7" xmlns="http://www.w3.org/2000/svg" viewBox="0 0 1080 1080"><defs><style>.cls-1{fill:#4a4e69;}.cls-1,.cls-2{stroke-width:0px;}.cls-2{fill:#22223b;}</style></defs><path class="cls-1" d="m268.29,642.63c-.76.76-.76,2,0,2.77l151.26,151.26-.51.51-11.45,11.45-21.84,21.83c-.76.76-2,.76-2.77,0l-181.54-181.54c-.76-.76-.76-2,0-2.77l463.25-463.25c.76-.76.76-2,0-2.77l-50.57-50.57-17.96-17.96c-.76-.76-2-.76-2.77,0l-463.25,463.24c-.76.76-2,.76-2.77,0l-29.94-29.94c-.76-.76-.76-2,0-2.77L560.68,78.88c.76-.76.76-2,0-2.77l-16.58-16.58c-.76-.76-2-.76-2.77,0L58.74,542.13c-.76.76-.76,2,0,2.77h0s17.96,17.96,17.96,17.96l.37.37,9.3,9.3,41.01,41.01c.76.76,2,.76,2.77,0l463.25-463.25c.76-.76,2-.76,2.77,0l29.84,29.84c.76.76.76,2,0,2.77l-463.25,463.25c-.76.76-.76,2,0,2.77l220.24,220.24c.76.76,2,.76,2.77,0l41.19-41.18,30.8-30.8,32.37-32.38,17.96-17.96c.76-.76.76-2,0-2.77l-169.21-169.21c-.76-.76-2-.76-2.77,0l-67.8,67.79Zm168.74,133.82l-130.57-130.57c-.75-.75-.75-1.97,0-2.72l29.66-29.66c.75-.75,1.97-.75,2.72,0l130.57,130.57c.75.75.75,1.97,0,2.72l-29.66,29.66c-.75.75-1.97.75-2.72,0Z"/><path class="cls-1" d="m384.36,870.73c-.76,0-1.52-.29-2.1-.87l-220.24-220.24c-1.16-1.16-1.16-3.05,0-4.21l463.25-463.25c.37-.37.37-.96,0-1.33l-29.84-29.84c-.36-.36-.97-.35-1.33,0l-463.25,463.25c-1.16,1.16-3.05,1.16-4.21,0l-68.64-68.64c-.56-.56-.87-1.31-.87-2.1s.31-1.54.87-2.1L540.61,58.81c1.16-1.16,3.05-1.16,4.21,0l16.58,16.58c1.16,1.16,1.16,3.05,0,4.21L98.15,542.85c-.18.18-.28.41-.28.66s.1.49.28.66l29.94,29.94c.36.35.97.35,1.33,0L592.67,110.87c1.16-1.16,3.04-1.16,4.21,0l68.53,68.52c1.16,1.16,1.16,3.05,0,4.21l-463.25,463.25c-.18.18-.28.41-.28.66s.1.49.28.66l181.54,181.54c.37.37.96.37,1.33,0l33.08-33.08-150.54-150.54c-.56-.56-.87-1.31-.87-2.1,0-.79.31-1.54.87-2.1h0l67.8-67.79c1.16-1.16,3.05-1.16,4.21,0l169.21,169.21c.56.56.87,1.31.87,2.1s-.31,1.54-.87,2.1l-122.33,122.33c-.58.58-1.34.87-2.1.87Zm210.41-722.04c.76,0,1.52.29,2.1.87l29.84,29.84c1.16,1.16,1.16,3.05,0,4.21l-463.25,463.25c-.37.37-.37.96,0,1.33l220.24,220.24c.37.37.96.37,1.33,0l122.33-122.33c.18-.18.28-.41.28-.66s-.1-.49-.28-.66l-169.21-169.21c-.37-.37-.96-.37-1.33,0l-67.8,67.79c-.18.18-.28.41-.28.66,0,.25.1.49.27.66l151.98,151.98-34.52,34.51c-1.16,1.16-3.05,1.16-4.21,0l-181.54-181.54c-.56-.56-.87-1.31-.87-2.1s.31-1.54.87-2.1l463.25-463.25c.37-.37.37-.96,0-1.33l-68.53-68.52c-.37-.37-.96-.37-1.33,0l-463.25,463.24c-1.12,1.12-3.08,1.12-4.21,0l-29.94-29.94c-.56-.56-.87-1.31-.87-2.1s.31-1.54.87-2.1L559.96,78.16c.37-.37.37-.96,0-1.33l-16.58-16.58c-.36-.37-.96-.37-1.33,0L59.46,542.85c-.37.37-.37.96,0,1.33l68.64,68.64c.37.37.96.37,1.33,0l463.25-463.25c.58-.58,1.34-.87,2.1-.87Zm-156.38,629.33c-.76,0-1.52-.29-2.1-.87l-130.53-130.53c-1.16-1.16-1.16-3.05,0-4.21l29.61-29.61c1.16-1.16,3.05-1.16,4.21,0l130.53,130.53c1.16,1.16,1.16,3.05,0,4.21l-29.61,29.61c-.58.58-1.34.87-2.1.87Zm-.66-2.31c.37.37.96.37,1.33,0l29.61-29.61c.18-.18.27-.41.27-.66s-.1-.49-.27-.66l-130.53-130.53c-.37-.37-.96-.37-1.33,0l-29.61,29.61c-.18.18-.28.41-.28.66s.1.49.28.66l130.53,130.53Z"/><path class="cls-2" d="m811.71,437.38c.76-.76.76-2,0-2.77l-151.26-151.26.51-.51,11.45-11.45,21.84-21.83c.76-.76,2-.76,2.77,0l181.54,181.54c.76.76.76,2,0,2.77l-463.25,463.25c-.76.76-.76,2,0,2.77l50.57,50.57,17.96,17.96c.76.76,2,.76,2.77,0l463.25-463.24c.76-.76,2-.76,2.77,0l29.94,29.94c.76.76.76,2,0,2.77l-463.24,463.25c-.76.76-.76,2,0,2.77l16.58,16.58c.76.76,2,.76,2.77,0l482.59-482.6c.76-.76.76-2,0-2.77h0s-17.96-17.96-17.96-17.96l-.37-.37-9.3-9.3-41.01-41.01c-.76-.76-2-.76-2.77,0l-463.25,463.25c-.76.76-2,.76-2.77,0l-29.84-29.84c-.76-.76-.76-2,0-2.77l463.25-463.25c.76-.76.76-2,0-2.77l-220.24-220.24c-.76-.76-2-.76-2.77,0l-41.19,41.18-30.8,30.8-32.37,32.38-17.96,17.96c-.76.76-.76,2,0,2.77l169.21,169.21c.76.76,2,.76,2.77,0l67.8-67.79Zm-168.74-133.82l130.57,130.57c.75.75.75,1.97,0,2.72l-29.66,29.66c-.75.75-1.97.75-2.72,0l-130.57-130.57c-.75-.75-.75-1.97,0-2.72l29.66-29.66c.75-.75,1.97-.75,2.72,0Z"/><path class="cls-2" d="m537.29,1022.06c-.76,0-1.52-.29-2.1-.87l-16.58-16.58c-1.16-1.16-1.16-3.05,0-4.21l463.24-463.25c.37-.37.37-.96,0-1.33l-29.94-29.94c-.37-.37-.96-.37-1.33,0l-463.25,463.24c-1.16,1.16-3.04,1.16-4.2,0l-68.53-68.53c-1.16-1.16-1.16-3.05,0-4.21l463.25-463.25c.37-.37.37-.96,0-1.33l-181.54-181.54c-.37-.37-.96-.37-1.33,0l-33.08,33.07,150.54,150.54c.56.56.87,1.31.87,2.1s-.31,1.54-.87,2.1h0s-67.8,67.79-67.8,67.79c-1.12,1.12-3.08,1.13-4.21,0l-169.21-169.21c-.56-.56-.87-1.31-.87-2.1s.31-1.54.87-2.1l122.33-122.33c1.16-1.16,3.05-1.16,4.21,0l220.24,220.24c1.16,1.16,1.16,3.05,0,4.21l-463.25,463.25c-.37.37-.37.96,0,1.33l29.84,29.84c.37.37.96.37,1.33,0l463.25-463.25c1.12-1.12,3.08-1.12,4.21,0l68.64,68.63c1.16,1.16,1.16,3.05,0,4.21l-482.59,482.6c-.58.58-1.34.87-2.1.87Zm413.96-518.48c.76,0,1.52.29,2.1.87l29.94,29.94c1.16,1.16,1.16,3.05,0,4.21l-463.24,463.25c-.37.37-.37.96,0,1.33l16.58,16.58c.37.37.96.37,1.33,0l482.59-482.6c.37-.37.37-.96,0-1.33l-68.64-68.63c-.36-.36-.97-.36-1.33,0l-463.25,463.25c-1.16,1.16-3.05,1.16-4.21,0l-29.84-29.84c-1.16-1.16-1.16-3.05,0-4.21l463.25-463.25c.37-.37.37-.96,0-1.33l-220.24-220.24c-.36-.37-.96-.37-1.33,0l-122.33,122.33c-.18.18-.28.41-.28.66s.1.49.28.66l169.21,169.21c.36.36.96.37,1.33,0l67.8-67.79c.18-.18.28-.41.28-.66s-.1-.49-.28-.66l-151.98-151.98,34.52-34.51c1.16-1.16,3.05-1.16,4.21,0l181.54,181.54c1.16,1.16,1.16,3.05,0,4.21l-463.25,463.25c-.37.37-.37.96,0,1.33l68.53,68.52c.37.37.96.36,1.33,0l463.25-463.24c.58-.58,1.34-.87,2.1-.87Zm-208.72-35.51c-.79,0-1.54-.31-2.1-.87l-130.53-130.53c-1.16-1.16-1.16-3.05,0-4.21l29.61-29.61c1.12-1.12,3.08-1.12,4.21,0l130.53,130.53c1.16,1.16,1.16,3.05,0,4.21l-29.61,29.61c-.56.56-1.31.87-2.1.87Zm-100.91-164.05c-.25,0-.49.1-.66.27l-29.61,29.61c-.18.18-.28.41-.28.66s.1.49.28.66l130.53,130.53c.36.36.97.35,1.33,0l29.61-29.61c.37-.37.37-.96,0-1.33l-130.53-130.53c-.18-.18-.41-.27-.66-.27Z"/></svg>