<svg xmlns="http://www.w3.org/2000/svg" enable-background="new 0 0 512 512" viewBox="0 0 512 512" id="lion"><path d="M444.7,150.7c-2.3-3.4,1.4-7.6,5-5.6l10.9,5.7c3.1,1.6,6.7-1.4,5.6-4.8c-14.6-45.6-44.8-79.8-91.1-102.4c-3.1-1.5-3-6,0.2-7.3c5.2-2,11.2-3.3,17.5-4.1c3.9-0.5,4.8-6,1.2-7.6c-15.4-6.8-34.4-8.4-56.6-5.5c-3.3,0.4-5.9-3.4-3.7-6.2c1.7-2.2,3.5-4.3,5.4-6.4c2.5-2.6,0.4-6.8-3.2-6.6c-30.5,2.2-59,8.2-76.8,32.5c-1.5,2.1-4.7,2.1-6.2,0C235,8.2,206.6,2.3,176,0c-3.6-0.3-5.6,4-3.1,6.6c1.9,2,3.7,4.2,5.4,6.4c2.1,2.7-0.3,6.7-3.7,6.2c-22.2-2.9-41.2-1.3-56.6,5.5c-3.6,1.6-2.7,7,1.2,7.6c6.4,0.8,12.3,2.1,17.5,4.1c3.2,1.3,3.3,5.7,0.2,7.2C90.6,66.2,60.4,100.4,45.8,146c-1.1,3.4,2.4,6.4,5.6,4.8l11-5.8c3.6-1.9,7.3,2.2,5,5.6C48.2,179.1,41.2,214,42.5,253.4c0.1,3.8,5,5.3,7.2,2.1l5.6-8.1c2.4-3.5,7.9-1.1,7.1,3c-5,24-4,47.5,3.7,70.5c1.3,3.9,7,3.4,7.6-0.6c0.6-3.4,1.3-6.7,2.2-9.9c1.1-4.3,7.4-3.5,7.7,0.9c1.4,27.5,9.2,54.5,22.2,80.9c1.8,3.6,7.2,2.5,7.4-1.5c0.2-3.1,0.5-6.1,0.9-9c0.6-4.3,6.7-4.4,7.7-0.2c4.4,17.5,12.6,32.7,24.4,45.9c2.5,2.7,6.9,0.9,6.9-2.6c0-0.2-0.1-0.4-0.1-0.5c-0.5-4.2,5.3-6.1,7.3-2.4c5.8,10.6,12.9,20.1,21.1,28.4c2.8,2.8,7.4,0.3,6.7-3.6c-1.6-8-1.2-15.6,2.8-22.6c5.8,22.2,13.6,41.4,25.3,54.8c2.5,2.8,7.1,0.8,6.8-3c-0.1-1.5-0.1-3-0.1-4.5c0.2-4.5,6.4-5.4,7.7-1.1c4.7,15.3,12.1,28.8,22.3,40.6c1.6,1.8,4.4,1.8,6,0c10.3-11.8,17.7-25.4,22.4-40.7c1.3-4.3,7.5-3.4,7.7,1.1c0.1,1.5,0.1,3,0,4.5c-0.2,3.8,4.3,5.9,6.8,3c11.7-13.4,19.4-32.6,25.2-54.8c4.1,7,4.5,14.7,2.8,22.7c-0.8,3.8,3.9,6.4,6.7,3.6c8.3-8.4,15.4-17.8,21.2-28.6c2-3.8,7.8-1.8,7.3,2.4v0.1c-0.4,3.8,4.3,6,6.8,3.1c11.7-13.1,19.9-28.4,24.4-45.9c1-4.2,7.1-4,7.7,0.3c0.4,2.8,0.7,5.8,0.9,8.9c0.2,4,5.7,5.1,7.5,1.5c12.9-26.4,20.8-53.3,22.1-80.9c0.2-4.4,6.5-5.2,7.7-0.9c0.9,3.2,1.6,6.5,2.2,9.9c0.7,4.1,6.4,4.5,7.7,0.6c7.6-23,8.5-46.5,3.6-70.4c-0.9-4.2,4.7-6.5,7.1-3l5.6,8.1c2.1,3.1,7.1,1.6,7.2-2.1C470.8,214,463.8,179.1,444.7,150.7z M357.3,265.5c7.2,15.2,10,31.2,8.3,47.5c-3.2,29.9-26.4,55.8-58.1,51.4c-11.6,16.8-30.7,26.8-51.5,26.8c-20.9,0-39.9-10.1-51.5-26.9c-30.6,5-54.9-21-58.1-51.4c-1.7-16.3,1.1-32.2,8.3-47.5c-27.7-26.8-53.1-50.1-45.5-94.1c10.2-58.7,46.7-91.1,102.8-91.1c13.5,0,28.3,1.9,44,5.7c15.7-3.8,30.4-5.7,44-5.7c54.5,0,90.7,30.8,101.9,86.6C412,217.1,380.7,242,357.3,265.5z"></path><path d="M211.1,354.3c19.7,34.4,69.7,34.8,89.7-0.1c-5.7-1.4-12.4-3.8-23.3-9.2C248.6,330.4,233.2,348.9,211.1,354.3z"></path><path d="M256,97.3c-79.8-20.3-124.9,11.9-136,76c-8.5,49.4,35.9,74.8,48,90.5c-7.8,13.6-12.6,29.7-10.7,48.1c3.4,34.5,36.8,46.3,60,32.2c13.3-7.9,19.9-13.4,33.2-14.8v-9.8c-6.3-1-12.3-3.7-17.4-8.3c-3.4-2.3-16.6-16.8-25-33.3c-7.7-15.1,8.2-31.6,23.7-24.3c15.2,7.4,33.2,7.3,48.4,0c15.4-7.4,31.4,9.1,23.6,24.3c-7.1,14.1-17.6,27.2-25.3,33.5c-4.7,4.3-10.7,7.1-17,8.1v9.7c14.2,1.6,19.7,7.3,34.4,14.9c23.1,13,55.5,0.9,58.9-32.3c1.9-18.4-2.9-34.5-10.7-48.1c11.4-15.3,58-40.6,47.1-94.7C379.2,109.8,336.1,76.8,256,97.3z M213,210c-0.4,2.4-3.2,3.4-5,1.7c-4.7-4.3-9.6-6.9-14.8-7.7c-13.4-2.5-21-10.2-22.9-23.1c-0.5-3-3-5.7-6.4-8.3c-2.3-1.7-1.2-5.4,1.7-5.5c4.6-0.1,8.9,0,13.1,0.4c8.8,0.9,17,3.2,25,8c4.2,3.1,6.7,7.2,8.2,11.8C214.5,195.4,213.9,204.3,213,210z M347.9,172.8c-3.4,2.5-6,5.2-6.4,8.3c-1.8,12.9-9.4,20.6-22.9,23.1c-5.2,0.8-10.2,3.4-14.8,7.7c-1.8,1.7-4.7,0.7-5-1.7c-0.9-5.7-1.5-14.6,1.1-22.5c1.5-4.6,4-8.8,8.2-11.8c8-4.8,16.2-7.1,25-8c4.2-0.4,8.6-0.5,13.1-0.4C349.1,167.4,350.2,171.1,347.9,172.8z"></path><path d="M294,272.9c3-5.9-3.2-12.3-9.1-9.5c-18.2,8.8-39.8,8.8-57.9,0c-5.9-2.8-12.1,3.6-9.1,9.5c6.4,12.8,15.9,24.6,22.6,30.1c8.7,7.9,22.3,7.9,31,0C278,297.6,287.6,285.7,294,272.9z"></path></svg>