<svg width="54" height="54" viewBox="0 0 54 54" fill="none" xmlns="http://www.w3.org/2000/svg">
<path d="M13.4142 32.1317C13.3762 32.1697 13.3762 32.2317 13.4142 32.2702L20.9772 39.8332L20.9517 39.8587L20.3792 40.4312L19.2872 41.5227C19.2492 41.5607 19.1872 41.5607 19.1487 41.5227L10.0717 32.4457C10.0337 32.4077 10.0337 32.3457 10.0717 32.3072L33.2342 9.14474C33.2722 9.10674 33.2722 9.04474 33.2342 9.00624L30.7057 6.47774L29.8077 5.57974C29.7697 5.54174 29.7077 5.54174 29.6692 5.57974L6.5067 28.7417C6.4687 28.7797 6.4067 28.7797 6.3682 28.7417L4.8712 27.2447C4.8332 27.2067 4.8332 27.1447 4.8712 27.1062L28.0337 3.94424C28.0717 3.90624 28.0717 3.84424 28.0337 3.80574L27.2047 2.97674C27.1667 2.93874 27.1047 2.93874 27.0662 2.97674L2.9367 27.1067C2.8987 27.1447 2.8987 27.2067 2.9367 27.2452L3.8347 28.1432L3.8532 28.1617L4.3182 28.6267L6.3687 30.6772C6.4067 30.7152 6.4687 30.7152 6.5072 30.6772L29.6697 7.51474C29.7077 7.47674 29.7697 7.47674 29.8082 7.51474L31.3002 9.00674C31.3382 9.04474 31.3382 9.10674 31.3002 9.14524L8.1377 32.3077C8.0997 32.3457 8.0997 32.4077 8.1377 32.4462L19.1497 43.4582C19.1877 43.4962 19.2497 43.4962 19.2882 43.4582L21.3477 41.3992L22.8877 39.8592L24.5062 38.2402L25.4042 37.3422C25.4422 37.3042 25.4422 37.2422 25.4042 37.2037L16.9437 28.7432C16.9057 28.7052 16.8437 28.7052 16.8052 28.7432L13.4152 32.1327L13.4142 32.1317ZM21.8512 38.8227L15.3227 32.2942C15.2852 32.2567 15.2852 32.1957 15.3227 32.1582L16.8057 30.6752C16.8432 30.6377 16.9042 30.6377 16.9417 30.6752L23.4702 37.2037C23.5077 37.2412 23.5077 37.3022 23.4702 37.3397L21.9872 38.8227C21.9497 38.8602 21.8887 38.8602 21.8512 38.8227Z" fill="white"/>
<path d="M19.2179 43.537C19.1799 43.537 19.1419 43.5225 19.1129 43.4935L8.10095 32.4815C8.04295 32.4235 8.04295 32.329 8.10095 32.271L31.2634 9.10846C31.2819 9.08996 31.2819 9.06046 31.2634 9.04196L29.7714 7.54996C29.7534 7.53196 29.7229 7.53246 29.7049 7.54996L6.54245 30.7125C6.48445 30.7705 6.38995 30.7705 6.33195 30.7125L2.89995 27.2805C2.87195 27.2525 2.85645 27.215 2.85645 27.1755C2.85645 27.136 2.87195 27.0985 2.89995 27.0705L27.0304 2.94096C27.0884 2.88296 27.1829 2.88296 27.2409 2.94096L28.07 3.76996C28.1279 3.82796 28.1279 3.92246 28.07 3.98046L4.90745 27.143C4.89845 27.152 4.89345 27.1635 4.89345 27.176C4.89345 27.1885 4.89845 27.2005 4.90745 27.209L6.40445 28.706C6.42245 28.7235 6.45295 28.7235 6.47095 28.706L29.6334 5.54396C29.6914 5.48596 29.7854 5.48596 29.8439 5.54396L33.2704 8.96996C33.3284 9.02796 33.3284 9.12246 33.2704 9.18046L10.1079 32.343C10.0989 32.352 10.0939 32.3635 10.0939 32.376C10.0939 32.3885 10.0989 32.4005 10.1079 32.409L19.1849 41.486C19.2034 41.5045 19.2329 41.5045 19.2514 41.486L20.9054 39.832L13.3784 32.305C13.3504 32.277 13.3349 32.2395 13.3349 32.2C13.3349 32.1605 13.3504 32.123 13.3784 32.095L16.7684 28.7055C16.8264 28.6475 16.9209 28.6475 16.9789 28.7055L25.4394 37.166C25.4674 37.194 25.4829 37.2315 25.4829 37.271C25.4829 37.3105 25.4674 37.348 25.4394 37.376L19.3229 43.4925C19.2939 43.5215 19.2559 43.537 19.2179 43.537ZM29.7384 7.43496C29.7764 7.43496 29.8144 7.44946 29.8434 7.47846L31.3354 8.97046C31.3934 9.02846 31.3934 9.12296 31.3354 9.18096L8.17295 32.3435C8.15445 32.362 8.15445 32.3915 8.17295 32.41L19.1849 43.422C19.2034 43.4405 19.2329 43.4405 19.2514 43.422L25.3679 37.3055C25.3769 37.2965 25.3819 37.285 25.3819 37.2725C25.3819 37.26 25.3769 37.248 25.3679 37.2395L16.9074 28.779C16.8889 28.7605 16.8594 28.7605 16.8409 28.779L13.4509 32.1685C13.4419 32.1775 13.4369 32.189 13.4369 32.2015C13.4369 32.214 13.4419 32.226 13.4504 32.2345L21.0494 39.8335L19.3234 41.559C19.2654 41.617 19.1709 41.617 19.1129 41.559L10.0359 32.482C10.0079 32.454 9.99245 32.4165 9.99245 32.377C9.99245 32.3375 10.0079 32.3 10.0359 32.272L33.1984 9.10946C33.2169 9.09096 33.2169 9.06146 33.1984 9.04296L29.7719 5.61696C29.7534 5.59846 29.7239 5.59846 29.7054 5.61696L6.54295 28.779C6.48695 28.835 6.38895 28.835 6.33245 28.779L4.83545 27.282C4.80745 27.254 4.79195 27.2165 4.79195 27.177C4.79195 27.1375 4.80745 27.1 4.83545 27.072L27.9979 3.90846C28.0164 3.88996 28.0164 3.86046 27.9979 3.84196L27.1689 3.01296C27.1509 2.99446 27.1209 2.99446 27.1024 3.01296L2.97295 27.143C2.95445 27.1615 2.95445 27.191 2.97295 27.2095L6.40495 30.6415C6.42345 30.66 6.45294 30.66 6.47144 30.6415L29.6339 7.47896C29.6629 7.44996 29.7004 7.43496 29.7384 7.43496ZM21.9194 38.9015C21.8814 38.9015 21.8434 38.887 21.8144 38.858L15.2879 32.3315C15.2299 32.2735 15.2299 32.179 15.2879 32.121L16.7684 30.6405C16.8264 30.5825 16.9209 30.5825 16.9789 30.6405L23.5054 37.167C23.5634 37.225 23.5634 37.3195 23.5054 37.3775L22.0249 38.858C21.9959 38.887 21.9574 38.9015 21.9194 38.9015ZM21.8864 38.786C21.9049 38.8045 21.9344 38.8045 21.9529 38.786L23.4334 37.3055C23.4424 37.2965 23.4469 37.285 23.4469 37.2725C23.4469 37.26 23.4419 37.248 23.4334 37.2395L16.9069 30.713C16.8884 30.6945 16.8589 30.6945 16.8404 30.713L15.3599 32.1935C15.3509 32.2025 15.3459 32.214 15.3459 32.2265C15.3459 32.239 15.3509 32.251 15.3599 32.2595L21.8864 38.786Z" fill="white"/>
<path d="M40.5858 21.8691C40.6238 21.8311 40.6238 21.7691 40.5858 21.7306L33.0228 14.1676L33.0483 14.1421L33.6208 13.5696L34.7128 12.4781C34.7508 12.4401 34.8128 12.4401 34.8513 12.4781L43.9283 21.5551C43.9663 21.5931 43.9663 21.6551 43.9283 21.6936L20.7658 44.8562C20.7278 44.8941 20.7278 44.9562 20.7658 44.9947L23.2943 47.5232L24.1923 48.4212C24.2303 48.4591 24.2923 48.4591 24.3308 48.4212L47.4933 25.2591C47.5313 25.2211 47.5933 25.2211 47.6318 25.2591L49.1288 26.7561C49.1668 26.7941 49.1668 26.8561 49.1288 26.8946L25.9668 50.0572C25.9288 50.0951 25.9288 50.1572 25.9668 50.1956L26.7958 51.0247C26.8338 51.0626 26.8958 51.0626 26.9343 51.0247L51.0638 26.8946C51.1018 26.8566 51.1018 26.7946 51.0638 26.7561L50.1658 25.8581L50.1473 25.8396L49.6823 25.3746L47.6318 23.3241C47.5938 23.2861 47.5318 23.2861 47.4933 23.3241L24.3308 46.4866C24.2928 46.5247 24.2308 46.5247 24.1923 46.4866L22.7003 44.9947C22.6623 44.9566 22.6623 44.8946 22.7003 44.8562L45.8628 21.6936C45.9008 21.6556 45.9008 21.5936 45.8628 21.5551L34.8508 10.5431C34.8128 10.5051 34.7508 10.5051 34.7123 10.5431L32.6528 12.6021L31.1128 14.1421L29.4943 15.7611L28.5963 16.6591C28.5583 16.6971 28.5583 16.7591 28.5963 16.7976L37.0568 25.2581C37.0948 25.2961 37.1568 25.2961 37.1953 25.2581L40.5853 21.8686L40.5858 21.8691ZM32.1488 15.1781L38.6773 21.7066C38.7148 21.7441 38.7148 21.8051 38.6773 21.8426L37.1943 23.3256C37.1568 23.3631 37.0958 23.3631 37.0583 23.3256L30.5298 16.7971C30.4923 16.7596 30.4923 16.6986 30.5298 16.6611L32.0128 15.1781C32.0503 15.1406 32.1113 15.1406 32.1488 15.1781Z" fill="white"/>
<path d="M26.8645 51.1034C26.8265 51.1034 26.7885 51.0889 26.7595 51.0599L25.9305 50.2309C25.8725 50.1729 25.8725 50.0784 25.9305 50.0204L49.0925 26.8579C49.111 26.8394 49.111 26.8099 49.0925 26.7914L47.5955 25.2944C47.577 25.2759 47.5475 25.2759 47.529 25.2944L24.3665 48.4564C24.3085 48.5144 24.2145 48.5144 24.1565 48.4564L20.73 45.0299C20.672 44.9719 20.672 44.8774 20.73 44.8194L43.8925 21.6569C43.911 21.6384 43.911 21.6089 43.8925 21.5904L34.8155 12.5134C34.797 12.4949 34.7675 12.4949 34.749 12.5134L33.095 14.1669L40.622 21.6939C40.65 21.7219 40.6655 21.7594 40.6655 21.7989C40.6655 21.8384 40.65 21.8759 40.622 21.9039L37.232 25.2934C37.176 25.3494 37.078 25.3499 37.0215 25.2934L28.561 16.8329C28.533 16.8049 28.5175 16.7674 28.5175 16.7279C28.5175 16.6884 28.533 16.6509 28.561 16.6229L34.6775 10.5064C34.7355 10.4484 34.83 10.4484 34.888 10.5064L45.9 21.5184C45.958 21.5764 45.958 21.6709 45.9 21.7289L22.7375 44.8914C22.719 44.9099 22.719 44.9394 22.7375 44.9579L24.2295 46.4499C24.248 46.4684 24.2775 46.4684 24.296 46.4499L47.4585 23.2874C47.5145 23.2314 47.6125 23.2314 47.669 23.2874L51.101 26.7189C51.159 26.7769 51.159 26.8714 51.101 26.9294L26.9715 51.0594C26.9425 51.0884 26.9045 51.1029 26.8665 51.1029L26.8645 51.1034ZM47.5625 25.1794C47.6005 25.1794 47.6385 25.1939 47.6675 25.2229L49.1645 26.7199C49.2225 26.7779 49.2225 26.8724 49.1645 26.9304L26.0025 50.0929C25.984 50.1114 25.984 50.1409 26.0025 50.1594L26.8315 50.9884C26.85 51.0069 26.8795 51.0069 26.898 50.9884L51.0275 26.8584C51.046 26.8399 51.046 26.8104 51.0275 26.7919L47.5955 23.3604C47.5775 23.3424 47.547 23.3424 47.529 23.3604L24.3665 46.5229C24.3085 46.5809 24.214 46.5809 24.156 46.5229L22.664 45.0309C22.606 44.9729 22.606 44.8784 22.664 44.8204L45.8265 21.6579C45.845 21.6394 45.845 21.6099 45.8265 21.5914L34.8145 10.5794C34.7965 10.5609 34.7665 10.5609 34.748 10.5794L28.6315 16.6959C28.6225 16.7049 28.6175 16.7164 28.6175 16.7289C28.6175 16.7414 28.6225 16.7534 28.6315 16.7619L37.092 25.2224C37.11 25.2404 37.14 25.2409 37.1585 25.2224L40.5485 21.8329C40.5575 21.8239 40.5625 21.8124 40.5625 21.7999C40.5625 21.7874 40.5575 21.7754 40.5485 21.7669L32.9495 14.1679L34.6755 12.4424C34.7335 12.3844 34.828 12.3844 34.886 12.4424L43.963 21.5194C44.021 21.5774 44.021 21.6719 43.963 21.7299L20.8005 44.8924C20.782 44.9109 20.782 44.9404 20.8005 44.9589L24.227 48.3849C24.2455 48.4034 24.275 48.4029 24.2935 48.3849L47.456 25.2229C47.485 25.1939 47.523 25.1794 47.561 25.1794H47.5625ZM37.1265 23.4039C37.087 23.4039 37.0495 23.3884 37.0215 23.3604L30.495 16.8339C30.437 16.7759 30.437 16.6814 30.495 16.6234L31.9755 15.1429C32.0315 15.0869 32.1295 15.0869 32.186 15.1429L38.7125 21.6694C38.7705 21.7274 38.7705 21.8219 38.7125 21.8799L37.232 23.3604C37.204 23.3884 37.1665 23.4039 37.127 23.4039H37.1265ZM32.081 15.2014C32.0685 15.2014 32.0565 15.2064 32.048 15.2149L30.5675 16.6954C30.5585 16.7044 30.5535 16.7159 30.5535 16.7284C30.5535 16.7409 30.5585 16.7529 30.5675 16.7614L37.094 23.2879C37.112 23.3059 37.1425 23.3054 37.1605 23.2879L38.641 21.8074C38.6595 21.7889 38.6595 21.7594 38.641 21.7409L32.1145 15.2144C32.1055 15.2054 32.094 15.2009 32.0815 15.2009L32.081 15.2014Z" fill="white"/>
</svg>
