<svg width="380" height="388" viewBox="0 0 380 388" fill="none" xmlns="http://www.w3.org/2000/svg">
<path d="M159.104 120.312C154.135 118.683 150.713 127.603 153.809 128.356C155.234 128.702 156.884 127.012 157.128 125.77C157.245 124.475 156.945 123.176 156.273 122.063C156.6 121.758 157.002 121.545 157.439 121.445C157.875 121.345 158.33 121.361 158.757 121.493C158.835 121.516 158.916 121.523 158.997 121.514C159.077 121.506 159.155 121.481 159.226 121.443C159.297 121.404 159.359 121.351 159.41 121.289C159.46 121.226 159.498 121.153 159.521 121.076C159.544 120.998 159.551 120.917 159.542 120.837C159.534 120.756 159.509 120.678 159.47 120.607C159.432 120.536 159.379 120.474 159.316 120.423C159.253 120.373 159.181 120.335 159.104 120.312ZM155.031 126.808C153.687 127.603 152.994 125.749 155.295 122.939C156.456 124.69 155.988 126.258 155.051 126.727L155.031 126.808ZM155.906 110.435C155.458 110.435 155.092 111.148 155.54 111.413C156.772 112.128 157.937 112.953 159.022 113.877C158.533 115.201 157.698 115.608 158.126 116.117C158.208 116.216 158.32 116.285 158.445 116.314C158.57 116.344 158.701 116.332 158.818 116.28C159.516 115.73 160.086 115.036 160.488 114.243C160.623 114.042 160.707 113.81 160.732 113.569C160.757 113.327 160.722 113.084 160.631 112.859C159.207 111.786 157.609 110.966 155.906 110.435ZM149.267 108.826C149.206 108.695 149.1 108.59 148.969 108.53C148.837 108.469 148.688 108.458 148.549 108.497C148.409 108.536 148.288 108.623 148.207 108.743C148.126 108.863 148.091 109.008 148.107 109.152C148.631 110.744 149.313 112.279 150.143 113.734C150.295 113.866 150.488 113.942 150.689 113.948C150.89 113.955 151.088 113.892 151.248 113.77C151.408 113.648 151.521 113.475 151.569 113.279C151.616 113.083 151.594 112.877 151.508 112.696C150.978 111.942 149.267 109.152 149.267 108.826ZM160.448 104.326C160.364 104.185 160.228 104.084 160.069 104.044C159.911 104.004 159.743 104.028 159.602 104.112C159.462 104.196 159.361 104.332 159.321 104.49C159.28 104.649 159.305 104.817 159.389 104.957C159.552 105.242 160.631 107.523 160.977 108.073C161.096 108.275 161.29 108.422 161.518 108.482C161.745 108.541 161.986 108.507 162.189 108.389C162.391 108.27 162.538 108.075 162.598 107.848C162.657 107.621 162.623 107.379 162.504 107.177C162.199 106.607 160.672 104.631 160.448 104.326ZM147.801 105.751C146.951 106.028 146.214 106.576 145.707 107.312C145.199 108.048 144.947 108.931 144.991 109.824C144.991 109.97 145.049 110.11 145.152 110.213C145.255 110.316 145.395 110.374 145.541 110.374C145.687 110.374 145.826 110.316 145.93 110.213C146.033 110.11 146.091 109.97 146.091 109.824C146.158 109.231 146.402 108.672 146.791 108.218C147.179 107.764 147.694 107.437 148.27 107.279C148.418 107.179 148.53 107.034 148.59 106.865C148.65 106.696 148.654 106.513 148.601 106.341C148.549 106.17 148.443 106.021 148.299 105.914C148.155 105.808 147.98 105.751 147.801 105.751ZM157.413 102.697C160.203 102.31 159.959 103.491 160.631 103.491C161.303 103.491 161.425 103.084 160.997 102.452C160.57 101.821 160.142 101.129 157.149 101.129C156.151 101.108 156.171 102.88 157.413 102.697ZM181.708 216.82C184.998 217.219 188.312 217.389 191.626 217.329C194.579 217.329 194.782 217.329 194.843 217.023C195.312 215.252 197.206 201.954 196.758 201.485C190.3 194.231 186.059 185.276 184.539 175.683C182.788 167.056 179.826 158.719 175.741 150.92C175.72 150.867 175.684 150.822 175.637 150.79C175.589 150.758 175.534 150.741 175.477 150.741C175.42 150.741 175.364 150.758 175.317 150.79C175.27 150.822 175.233 150.867 175.212 150.92C174.378 152.221 173.259 153.315 171.939 154.12C170.62 154.924 169.134 155.418 167.596 155.563C165.803 155.563 174.173 165.521 174.377 184.908C173.606 196.037 176.157 207.144 181.708 216.82ZM163.767 193.217C164.068 192.889 164.292 192.497 164.422 192.07C164.553 191.644 164.586 191.194 164.52 190.753C164.52 186.925 163.421 179.777 163.095 177.679C162.973 176.946 162.851 176.6 162.484 176.315C162.349 176.22 162.197 176.154 162.036 176.119C161.875 176.084 161.709 176.081 161.547 176.111C155.072 179.54 147.529 180.356 140.47 178.392C140.353 178.364 140.231 178.369 140.116 178.405C140.002 178.441 139.899 178.506 139.818 178.595C139.126 179.288 139.94 178.331 141.509 193.462C141.671 194.867 141.671 195.641 142.384 196.231C143.097 196.822 147.19 198.268 153.279 200.467C153.655 200.666 154.068 200.786 154.492 200.817C154.916 200.849 155.342 200.792 155.743 200.65C156.619 200.223 163.258 193.747 163.767 193.217ZM143.402 194.806C143.219 194.235 142.262 184.155 141.366 180.164C145.439 180.55 151.813 182.404 161.466 177.862C162.287 182.23 162.756 186.657 162.871 191.099C162.871 191.486 162.871 191.731 162.667 191.975C162.464 192.219 155.662 198.655 155.295 198.919C154.583 199.449 154.99 199.49 145.948 195.946C143.647 195.009 143.504 195.009 143.402 194.806ZM122.895 215.537C104.716 224.912 84.7036 230.188 64.2657 230.994C64.1354 231.019 64.0179 231.088 63.9334 231.19C63.849 231.292 63.8027 231.421 63.8027 231.554C63.8027 231.686 63.849 231.815 63.9334 231.917C64.0179 232.019 64.1354 232.089 64.2657 232.114C85.8114 231.604 104.628 227.613 123.323 216.433C123.413 216.361 123.477 216.261 123.503 216.149C123.529 216.036 123.516 215.918 123.467 215.814C123.417 215.71 123.333 215.626 123.23 215.575C123.126 215.525 123.008 215.511 122.895 215.537ZM50.4381 199.632C42.6181 197.025 23.4143 189.572 21.3168 188.594C20.7058 188.309 20.1967 189.246 20.828 189.552C24.6973 191.446 47.75 200.63 49.9697 201.261C50.1745 201.291 50.3832 201.246 50.5572 201.134C50.7311 201.022 50.8585 200.85 50.9157 200.651C50.9728 200.452 50.956 200.239 50.8681 200.052C50.7803 199.865 50.6275 199.715 50.4381 199.632ZM61.3535 196.272C57.1177 194.887 40.3169 188.92 36.3662 186.986C36.2366 186.915 36.0843 186.9 35.943 186.942C35.8017 186.984 35.6829 187.08 35.6127 187.21C35.5425 187.339 35.5266 187.492 35.5686 187.633C35.6107 187.774 35.7071 187.893 35.8367 187.963C39.5634 190 56.4049 196.842 60.9462 197.738C61.1407 197.792 61.3486 197.767 61.5243 197.667C61.7 197.568 61.829 197.403 61.883 197.209C61.937 197.014 61.9116 196.806 61.8123 196.631C61.713 196.455 61.548 196.326 61.3535 196.272ZM53.3706 185.336C53.2329 185.298 53.0858 185.317 52.9617 185.387C52.8375 185.458 52.7466 185.575 52.7088 185.713C52.671 185.851 52.6894 185.998 52.7601 186.122C52.8307 186.246 52.9478 186.337 53.0855 186.375C56.8937 187.515 71.7191 193.523 75.0385 194.826C75.214 194.879 75.4029 194.867 75.5698 194.791C75.7367 194.715 75.8701 194.58 75.945 194.413C76.02 194.246 76.0313 194.057 75.9769 193.881C75.9225 193.706 75.8061 193.557 75.6495 193.462C68.5237 189.991 61.0575 187.268 53.3706 185.336ZM69.1328 183.239C69.0035 183.191 68.8614 183.192 68.7329 183.242C68.6043 183.291 68.498 183.385 68.4335 183.507C68.3689 183.629 68.3506 183.769 68.3818 183.903C68.413 184.038 68.4917 184.156 68.6033 184.236C86.7482 193.604 86.9314 194.215 87.4813 193.115C88.0311 192.016 87.3795 192.118 69.1328 183.239ZM98.356 191.018C97.2156 190.488 80.7202 182.872 78.6431 181.833C77.9914 181.487 77.4415 182.465 78.0728 182.811C81.3108 184.583 94.3645 191.344 97.6432 192.667C98.6003 193.075 99.2927 191.486 98.356 191.018ZM87.8478 181.528C91.2487 183.34 104.791 188.615 108.436 189.022C109.414 189.022 109.597 187.637 108.701 187.352C103.59 185.805 91.3913 182.017 88.3366 180.53C88.211 180.501 88.0793 180.515 87.9628 180.57C87.8464 180.626 87.7522 180.719 87.6954 180.835C87.6387 180.95 87.6229 181.082 87.6506 181.208C87.6783 181.334 87.7478 181.447 87.8478 181.528ZM94.7922 317.36C85.8521 315.853 58.3599 310.314 56.6697 309.58C56.2163 309.396 55.7259 309.32 55.2379 309.359C54.7499 309.398 54.2778 309.55 53.8594 309.804C53.391 310.008 6.89863 331.391 6.26732 332.206C5.99453 332.543 5.8457 332.963 5.8457 333.397C5.8457 333.831 5.99453 334.251 6.26732 334.588C6.67462 335.219 21.1335 348.497 25.0638 351.878C20.2357 355.173 15.6798 358.85 11.4399 362.875C11.3422 362.974 11.2678 363.094 11.2223 363.226C11.1768 363.358 11.1613 363.498 11.1769 363.636C11.1925 363.775 11.2389 363.908 11.3126 364.027C11.3862 364.145 11.4854 364.245 11.6028 364.32C20.9298 370.43 53.0855 387.76 53.5132 387.76C53.6169 387.761 53.7195 387.739 53.8143 387.697C53.9091 387.655 53.9939 387.593 54.063 387.516C63.2882 376.641 86.1372 347.194 88.6828 343.589C88.7392 343.506 88.7782 343.411 88.7975 343.312C88.8168 343.213 88.8159 343.111 88.7951 343.012C88.7742 342.914 88.7336 342.82 88.6759 342.737C88.6181 342.654 88.5443 342.584 88.4588 342.53C86.4861 341.576 84.4438 340.773 82.3494 340.127C85.9539 336.38 90.2305 328.234 92.8779 323.225C93.6123 321.694 94.4421 320.212 95.3624 318.785C95.4781 318.67 95.5573 318.523 95.5902 318.363C95.6232 318.202 95.6084 318.036 95.5476 317.884C95.4869 317.733 95.3829 317.602 95.2486 317.509C95.1144 317.415 94.9556 317.364 94.7922 317.36ZM56.4253 333.774C57.8712 333.489 83.9582 341.919 86.8296 343.345C78.6838 354.993 56.5068 382.038 53.2688 385.968C41.7221 380.368 17.366 365.766 13.5375 363.363C22.5183 355.319 42.6792 340.372 56.4253 333.774ZM61.5572 333.366C59.8542 332.64 58.0099 332.306 56.1606 332.389C54.8369 332.592 48.0147 335.729 32.8024 346.277C26.4283 342.103 19.7894 337.989 16.5107 331.065C16.1645 330.373 15.1259 330.923 15.4518 331.635C18.5675 338.457 24.962 343.141 31.5601 347.153C29.8902 348.314 28.0982 349.577 26.245 350.921C23.5365 348.375 19.769 345.096 16.4089 342.164C6.49133 333.488 7.79467 334.486 7.42811 333.489C7.30592 333.142 7.28556 333.061 7.42811 332.898C8.28342 332.368 50.5807 313.042 54.8165 311.189C55.6718 310.823 52.4338 310.639 93.1426 318.745C89.443 325.959 85.2445 332.907 80.5777 339.537C75.1404 337.684 67.8091 335.321 61.5572 333.366Z" fill="black"/>
<path d="M39.2983 337.337C25.9595 331.961 24.5747 326.361 23.3936 327.501C23.3437 327.551 23.3041 327.609 23.2771 327.674C23.2501 327.739 23.2362 327.808 23.2362 327.878C23.2362 327.948 23.2501 328.018 23.2771 328.082C23.3041 328.147 23.3437 328.206 23.3936 328.255C27.5662 333.027 32.8959 336.645 38.8707 338.763C39.7667 339.068 40.1333 337.684 39.2983 337.337ZM52.6168 331.004C47.3797 329.177 42.6583 326.118 38.8503 322.084C38.3819 321.575 37.6081 322.308 38.0765 322.838C41.8806 327.187 46.741 330.484 52.1891 332.409C53.0852 332.715 53.5535 331.33 52.6168 331.004ZM284.142 329.477C277.808 328.744 241.213 321.677 238.281 320.761C237.609 320.537 237.303 321.575 237.975 321.799C238.24 321.901 264.877 330.719 284.121 330.719C284.267 330.695 284.4 330.621 284.497 330.509C284.594 330.397 284.648 330.254 284.65 330.106C284.653 329.958 284.603 329.814 284.51 329.699C284.417 329.584 284.287 329.505 284.142 329.477ZM244.533 296.14C250.52 297.891 281.433 306.587 302.47 306.587C302.659 306.587 302.84 306.512 302.974 306.378C303.108 306.245 303.183 306.063 303.183 305.874C303.183 305.685 303.108 305.504 302.974 305.37C302.84 305.237 302.659 305.161 302.47 305.161C295.22 304.449 249.013 296.282 244.797 295.142C244.665 295.107 244.524 295.126 244.406 295.195C244.287 295.263 244.201 295.376 244.166 295.509C244.131 295.641 244.15 295.782 244.219 295.9C244.287 296.019 244.4 296.105 244.533 296.14ZM282.574 244.19C278.684 245.391 255.896 254.678 253.778 255.818C253.606 255.91 253.471 256.057 253.394 256.236C253.318 256.415 253.304 256.615 253.357 256.802C253.409 256.99 253.523 257.154 253.682 257.267C253.84 257.381 254.032 257.437 254.226 257.427C254.613 257.427 253.513 257.63 262.901 253.944C270.62 250.91 280.211 247.143 282.961 245.167C283.074 245.106 283.162 245.004 283.206 244.883C283.25 244.761 283.248 244.627 283.2 244.507C283.153 244.387 283.063 244.288 282.947 244.23C282.832 244.171 282.699 244.157 282.574 244.19ZM299.415 246.98C300.128 246.674 299.639 245.493 298.926 245.799C294.181 247.713 275.976 255.431 271.516 257.63C270.599 258.079 271.332 259.402 272.249 259.015C274.407 258.099 296.992 247.998 299.415 246.98ZM316.501 247.611C305.833 250.76 295.367 254.555 285.16 258.975C285.008 259.066 284.89 259.203 284.821 259.366C284.752 259.529 284.737 259.71 284.778 259.882C284.819 260.054 284.914 260.209 285.048 260.324C285.182 260.439 285.35 260.509 285.527 260.522C285.812 260.522 313.182 249.709 316.786 248.629C316.914 248.586 317.021 248.495 317.084 248.375C317.147 248.255 317.162 248.116 317.126 247.985C317.089 247.855 317.004 247.743 316.888 247.674C316.772 247.604 316.633 247.582 316.501 247.611ZM333.913 250.238C334.006 250.157 334.067 250.046 334.087 249.924C334.106 249.802 334.083 249.677 334.02 249.57C333.957 249.464 333.859 249.383 333.743 249.341C333.627 249.3 333.499 249.3 333.383 249.342C325.523 253.191 309.231 257.488 302.124 262.437C301.968 262.538 301.848 262.687 301.782 262.861C301.717 263.035 301.708 263.226 301.758 263.405C301.808 263.584 301.914 263.743 302.06 263.858C302.206 263.973 302.386 264.039 302.572 264.045C303.244 264.045 300.332 264.717 316.562 257.936C322.489 255.705 328.282 253.135 333.913 250.238ZM348.127 251.827C343.647 253.598 316.562 264.045 315.442 264.554C314.322 265.064 314.872 266.754 315.992 266.326C322.61 263.801 344.502 255.411 348.575 252.947C349.227 252.56 348.84 251.521 348.127 251.827ZM82.512 68.9119C83.5913 69.2988 83.0415 67.5271 85.2816 66.5089C86.2808 66.0463 87.4218 65.9951 88.4584 66.3663C90.7596 67.2624 91.0651 70.4392 91.9612 72.4757C92.4813 73.7648 93.3602 74.8777 94.4935 75.6826C95.6268 76.4875 96.9671 76.9506 98.3556 77.017C101.349 77.2206 104.221 74.7362 106.501 76.5079C107.601 77.4447 108.11 78.8905 109.393 79.7866C109.945 80.2594 110.652 80.5107 111.378 80.4919C112.104 80.4731 112.797 80.1855 113.324 79.6848C113.812 79.0738 113.1 78.1371 112.428 78.6258C111.226 79.5015 109.902 78.1167 109.027 76.9152C106.99 74.1456 105.646 73.5347 101.471 74.6954C90.7596 77.689 94.8326 65.7554 88.0512 64.7779C83.9171 64.1873 81.0865 68.4028 82.512 68.9119ZM115.034 25.9426C116.406 25.5933 117.857 25.7313 119.138 26.3331C120.42 26.9348 121.453 27.9629 122.06 29.2417C124.259 34.0885 120.024 41.2161 125.359 45.6963C126.662 46.9996 128.536 48.0993 128.617 49.9117C128.617 50.5838 128.332 51.4595 128.353 52.274C128.353 54.5345 130.511 54.453 131.652 55.3491C132.199 55.8261 132.601 56.4482 132.81 57.1437C133.019 57.8392 133.027 58.5796 132.833 59.2794C132.801 59.3797 132.79 59.4852 132.8 59.5898C132.81 59.6945 132.84 59.7961 132.889 59.8889C132.939 59.9817 133.006 60.0639 133.087 60.1305C133.168 60.1972 133.262 60.2471 133.362 60.2773C135.399 60.8883 135.541 54.7178 131.122 53.1701C128.129 52.1111 132.975 49.9525 127.579 45.4315C126.358 44.6056 125.392 43.4546 124.791 42.1087C124.19 40.7628 123.978 39.2756 124.178 37.8152C124.178 34.7198 124.809 31.38 123.282 28.4678C120.859 23.8858 114.627 24.0284 114.301 25.1891C114.273 25.2915 114.273 25.3994 114.299 25.5021C114.326 25.6048 114.379 25.6988 114.453 25.7748C114.527 25.8508 114.619 25.9063 114.721 25.9357C114.823 25.9652 114.931 25.9675 115.034 25.9426ZM153.686 63.4135C153.862 63.4114 154.034 63.3586 154.181 63.2616C154.327 63.1645 154.443 63.0273 154.514 62.8662C154.585 62.7051 154.608 62.527 154.58 62.3532C154.553 62.1794 154.476 62.0173 154.358 61.8861C153.732 61.172 153.28 60.3216 153.04 59.4025C152.799 58.4833 152.777 57.5208 152.973 56.5913C153.528 54.7236 154.764 53.1321 156.435 52.1315C160.345 49.0157 161.262 47.0403 159.083 40.9513C158.105 38.2225 157.189 35.6362 159.083 33.2942C159.148 33.2261 159.2 33.1456 159.234 33.0575C159.269 32.9695 159.285 32.8755 159.284 32.7809C159.282 32.6864 159.261 32.5931 159.223 32.5065C159.185 32.4198 159.131 32.3415 159.062 32.276C158.994 32.2105 158.914 32.159 158.826 32.1246C158.738 32.0902 158.644 32.0734 158.549 32.0753C158.455 32.0772 158.361 32.0977 158.275 32.1356C158.188 32.1736 158.11 32.2282 158.044 32.2964C157.303 33.1279 156.789 34.1359 156.55 35.2236C156.311 36.3113 156.356 37.4421 156.68 38.5076C157.942 44.1893 160.997 46.8774 154.867 51.0114C153.014 52.2095 151.682 54.0648 151.141 56.2044C150.285 60.0533 152.668 63.4135 153.686 63.4135ZM168.797 65.1444C179.794 61.0715 167.779 55.4305 179.468 51.6835C179.619 51.6349 179.745 51.5282 179.817 51.3869C179.89 51.2455 179.903 51.0812 179.855 50.93C179.806 50.7787 179.699 50.653 179.558 50.5805C179.417 50.5079 179.252 50.4944 179.101 50.543C168.532 54.0865 174.03 58.5871 171.689 61.377C169.917 63.4135 167.127 63.108 167.758 64.6353C167.79 64.7389 167.843 64.8348 167.913 64.9171C167.984 64.9995 168.07 65.0666 168.167 65.1143C168.265 65.1619 168.371 65.1892 168.479 65.1944C168.587 65.1996 168.695 65.1826 168.797 65.1444ZM66.5665 99.8864C67.3182 99.9533 68.0754 99.8487 68.7808 99.5807C69.4863 99.3126 70.1218 98.8879 70.6394 98.3387C84.4466 87.5251 80.1293 77.5057 80.0682 77.4243C79.4442 76.6817 78.5922 76.1662 77.6448 75.958C62.8194 71.0502 51.8633 63.7393 45.9779 54.8807C45.7335 54.4938 45.2652 54.392 44.7357 54.8807C35.1643 62.2323 21.3164 58.2001 21.1739 58.1594C20.3593 57.915 19.7483 59.1165 20.4611 59.5849C24.3391 69.5148 30.5548 78.363 38.581 85.3788C46.6073 92.3947 56.2072 97.3712 66.5665 99.8864ZM22.7012 60.1551C26.1126 60.9784 29.6437 61.1853 33.1279 60.7661C37.2008 60.257 42.0068 59.5442 45.3466 56.5302C53.4925 70.3374 77.6448 78.0352 79.3758 79.2571C79.7017 90.6816 68.2364 97.9722 67.4218 98.1758C65.7325 97.8661 64.0657 97.4443 62.4325 96.9132C45.2041 91.5573 29.116 75.8155 22.7012 60.1551Z" fill="black"/>
<path d="M65.1621 94.1436C66.9338 92.5348 72.0861 83.9613 72.3101 81.2732C72.3047 81.0917 72.2357 80.9178 72.1151 80.782C71.9945 80.6462 71.83 80.5572 71.6503 80.5305C71.4707 80.5038 71.2874 80.5411 71.1325 80.636C70.9776 80.7308 70.861 80.8771 70.8031 81.0492C69.1533 85.3878 66.9492 89.4948 64.2457 93.2679C63.594 93.6752 64.5308 94.6324 65.1621 94.1436ZM61.5168 77.1596C60.4512 81.0788 58.4128 84.6653 55.5908 87.5862C54.9595 88.1768 55.8962 89.1136 56.5072 88.523C59.7122 85.5784 62.0324 81.7984 63.2071 77.6076C63.2665 77.3834 63.2345 77.1449 63.118 76.9444C63.0015 76.7439 62.8101 76.5978 62.586 76.5384C62.3619 76.479 62.1233 76.5111 61.9228 76.6276C61.7223 76.7441 61.5763 76.9354 61.5168 77.1596ZM54.5318 72.1499C53.4376 73.8359 51.9743 75.2511 50.2526 76.2883C48.5309 77.3256 46.5959 77.9577 44.5939 78.1371C44.4332 78.1649 44.2874 78.2486 44.1824 78.3735C44.0774 78.4983 44.0198 78.6562 44.0198 78.8193C44.0198 78.9824 44.0774 79.1403 44.1824 79.2651C44.2874 79.3899 44.4332 79.4736 44.5939 79.5015C46.8724 79.4233 49.0968 78.7862 51.0712 77.6463C53.0456 76.5064 54.7096 74.8986 55.9166 72.9645C56.0246 72.7808 56.0553 72.5618 56.0018 72.3556C55.9483 72.1493 55.8151 71.9728 55.6315 71.8648C55.4479 71.7568 55.2288 71.7261 55.0226 71.7796C54.8164 71.833 54.6398 71.9662 54.5318 72.1499ZM45.6936 65.2666C42.4931 67.2545 38.6676 67.9804 34.9614 67.3031C34.8397 67.2909 34.7177 67.3228 34.6177 67.3932C34.5176 67.4635 34.4462 67.5675 34.4166 67.6862C34.3869 67.8048 34.4009 67.9302 34.4561 68.0394C34.5113 68.1485 34.6039 68.2341 34.7171 68.2806C36.6947 68.8101 38.7591 68.9333 40.7857 68.6428C42.8123 68.3523 44.7589 67.6541 46.5082 66.5903C47.4449 66.1016 46.5692 64.7168 45.6936 65.2666ZM174.153 22.4399C180.1 26.6961 179.509 34.4754 177.188 39.8313C177.107 40.034 177.107 40.2598 177.188 40.4626C177.432 40.9106 177.88 40.9106 178.389 40.9106C182.314 40.502 186.207 39.8215 190.038 38.8741C198.184 37.0821 205.087 29.9341 202.969 21.5032C202.012 17.2673 198.509 15.0883 194.966 12.6649C190.893 9.91571 189.997 5.41513 189.549 0.955289C189.53 0.7659 189.443 0.589752 189.305 0.458928C189.166 0.328104 188.986 0.251308 188.796 0.242529C184.853 0.186103 180.965 1.17133 177.525 3.09866C174.086 5.02599 171.215 7.82713 169.205 11.219C165.784 16.7582 170.549 20.0165 174.153 22.4399ZM188.205 1.72914C189.264 9.87498 191.076 11.9114 195.679 15.0476C197.447 16.1357 198.978 17.5695 200.179 19.2631C204.252 26.2888 199.161 34.4347 191.585 36.6544C187.469 37.8961 183.261 38.8086 179 39.3833C180.833 34.4958 181.281 27.8162 177.208 23.2749C173.929 19.5889 166.659 17.7357 170.345 11.8503C172.3 8.86193 174.941 6.38413 178.047 4.62353C181.154 2.86293 184.637 1.87055 188.205 1.72914ZM222.173 74.0234C223 74.9968 224.058 75.7474 225.249 76.2063C226.441 76.6652 227.729 76.8179 228.995 76.6504C237.518 76.1269 245.976 74.8388 254.268 72.8015C267.708 69.6043 277.585 63.78 284 54.6363C284.631 53.7199 284.957 52.5999 284 52.1519C283.043 51.7038 268.93 45.513 262.373 38.1207C261.976 37.6895 261.427 37.4294 260.842 37.3952C260.257 37.361 259.681 37.5554 259.237 37.9374C256.406 39.9738 242.945 59.1573 214.048 61.1326C213.942 61.1373 213.839 61.1661 213.746 61.2169C213.653 61.2676 213.573 61.339 213.512 61.4256C213.451 61.5121 213.411 61.6115 213.394 61.716C213.377 61.8206 213.385 61.9275 213.416 62.0287C215.349 66.6615 218.349 70.7716 222.173 74.0234ZM261.599 39.6276C268.319 46.409 274.714 49.3823 282.819 53.4348C280.904 57.2634 274.551 62.1509 271.72 63.9633C257.709 72.8626 229.565 76.0395 226.083 75.0416C224.983 74.7158 216.715 67.6289 215.005 62.436C229.443 61.2752 242.334 56.6932 256.63 42.7434C260.54 38.9149 260.357 38.365 261.599 39.6276Z" fill="black"/>
<path d="M225.981 63.5965C225.737 62.9041 224.637 63.23 224.882 63.9427C226.653 69.0135 230.482 72.0886 231.296 72.0886C231.471 72.0742 231.637 72.0065 231.772 71.8948C231.906 71.7831 232.004 71.6327 232.05 71.464C232.097 71.2952 232.091 71.1162 232.032 70.9511C231.974 70.786 231.866 70.6428 231.724 70.5409C229.139 68.874 227.133 66.4483 225.981 63.5965ZM243.352 67.3844C234.392 63.8613 234.636 59.2385 233.292 60.0124C233.229 60.0483 233.174 60.0963 233.129 60.1537C233.085 60.2111 233.052 60.2767 233.033 60.3467C233.015 60.4168 233.01 60.4899 233.019 60.5618C233.029 60.6337 233.052 60.7031 233.089 60.7659C235.169 64.6603 238.693 67.5845 242.904 68.9117C243.107 68.9711 243.325 68.9476 243.51 68.8464C243.695 68.7452 243.833 68.5746 243.892 68.372C243.951 68.1695 243.928 67.9517 243.827 67.7664C243.725 67.5812 243.555 67.4438 243.352 67.3844ZM257.872 63.9835C253.152 62.9122 248.882 60.4 245.653 56.7948C245.185 56.2246 244.371 56.9781 244.839 57.5279C248.004 61.5207 252.436 64.315 257.404 65.4497C257.598 65.5118 257.809 65.4942 257.991 65.4006C258.172 65.307 258.309 65.1452 258.371 64.9508C258.433 64.7564 258.416 64.5452 258.322 64.3638C258.228 64.1824 258.067 64.0456 257.872 63.9835ZM257.689 50.8687C261.475 54.4964 266.278 56.8834 271.455 57.7112C272.474 57.8537 272.861 56.306 271.822 56.1431C266.877 55.441 262.228 53.3668 258.402 50.1559C258.307 50.0614 258.179 50.0083 258.045 50.0083C257.912 50.0083 257.783 50.0614 257.689 50.1559C257.594 50.2504 257.541 50.3786 257.541 50.5123C257.541 50.646 257.594 50.7742 257.689 50.8687ZM319.333 93.003C319.336 93.1373 319.374 93.2684 319.443 93.3835C319.512 93.4986 319.61 93.5937 319.727 93.6594C319.844 93.7252 319.977 93.7593 320.111 93.7585C320.245 93.7576 320.377 93.7219 320.493 93.6547C325.157 90.6814 340.451 80.1733 339.432 70.1947C338.781 63.678 333.16 58.9738 329.108 55.5322C329 55.4317 328.868 55.3615 328.725 55.3285C328.581 55.2956 328.432 55.3011 328.291 55.3445C328.151 55.3879 328.024 55.4677 327.924 55.5757C327.824 55.6838 327.755 55.8163 327.723 55.9598C326.114 65.5312 319.088 72.6995 313.468 77.0168C313.366 77.0827 313.28 77.17 313.215 77.2725C313.151 77.375 313.109 77.4903 313.094 77.6104C313.078 77.7305 313.089 77.8526 313.126 77.9681C313.162 78.0836 313.223 78.1899 313.305 78.2794C316.979 82.3279 319.113 87.5399 319.333 93.003ZM315.097 77.8518C321.924 72.9243 326.86 65.8104 329.087 57.6908C331.959 60.1142 337.416 65.5312 337.722 69.2579C338.353 76.7928 331.144 83.1465 328.069 85.8754C325.809 87.9795 323.385 89.8999 320.819 91.6182C320.357 86.554 318.361 81.7514 315.097 77.8518ZM32.6603 166.947C49.4611 166.947 57.5255 156.765 69.6628 161.143C70.362 161.417 71.0844 161.629 71.8214 161.774C72.1752 161.82 72.5347 161.791 72.8766 161.689C73.2184 161.587 73.535 161.414 73.8057 161.181C74.0765 160.949 74.2953 160.662 74.4482 160.34C74.601 160.018 74.6843 159.667 74.6928 159.31C76.516 152.21 77.8765 145 78.7657 137.724C78.8342 137.338 78.7899 136.941 78.6381 136.579C78.4864 136.218 78.2338 135.908 77.9104 135.687C72.5968 133.804 66.8474 133.521 61.3744 134.873C51.1921 137.133 38.9733 147.723 28.791 141.776C27.3655 140.941 26.0215 139.943 24.3108 140.452C23.4148 140.738 6.71583 151.653 3.09093 153.873C2.97204 153.946 2.87109 154.045 2.79548 154.163C2.71986 154.28 2.67149 154.413 2.65392 154.552C2.63635 154.691 2.65001 154.831 2.69392 154.964C2.73782 155.097 2.81085 155.218 2.90765 155.319C10.9804 162.845 21.6231 167.005 32.6603 166.947ZM5.08666 154.871C26.6528 141.491 24.0868 141.206 27.4877 143.08C44.0034 152.529 56.9756 129.944 77.0144 137.296C76.1705 144.571 74.947 151.796 73.3487 158.944C73.1858 159.269 72.7785 160.084 72.3916 160.084C71.6234 159.921 70.8679 159.704 70.1311 159.432C68.9093 159.066 67.5448 158.618 66.8117 158.495C58.6659 157.05 51.2124 161.55 43.7183 163.607C37.0537 165.398 30.0531 165.539 23.322 164.017C16.5909 162.494 10.332 159.355 5.08666 154.871ZM377.535 139.577C375.193 140.921 372.891 142.53 370.672 144.098C359.634 151.836 356.926 152.244 345.664 152.875C345.522 152.874 345.384 152.919 345.27 153.003C345.156 153.088 345.073 153.207 345.033 153.343C342.752 160.369 340.328 167.13 335.563 172.425C334.993 173.077 336.032 173.586 336.235 173.586C342.345 175.174 352.018 175.052 358.351 174.543C362.426 174.363 366.324 172.83 369.429 170.185C375.539 164.259 378.247 148.415 379.225 139.923C379.388 138.946 377.942 138.701 377.535 139.577ZM377.27 141.328C376.479 148.547 374.775 155.636 372.199 162.426C369.389 169.676 365.133 171.794 358.412 172.853C351.469 173.497 344.474 173.298 337.579 172.262C341.754 167.171 343.953 161.061 346.173 154.219C362.098 154.015 365.01 149.128 377.351 141.328H377.27ZM25.7363 360.533C32.9779 366.042 40.975 370.479 49.4815 373.708C50.4182 374.034 50.8052 372.629 49.9295 372.283C29.3409 363.791 26.7138 358.354 25.716 359.677C25.6594 359.734 25.6148 359.801 25.585 359.875C25.5553 359.95 25.5409 360.029 25.5428 360.109C25.5447 360.189 25.5629 360.268 25.5961 360.341C25.6294 360.414 25.6771 360.479 25.7363 360.533ZM61.5373 367.375C61.7231 367.412 61.9159 367.377 62.0773 367.278C62.2387 367.179 62.3569 367.022 62.4082 366.84C62.4596 366.658 62.4404 366.463 62.3545 366.294C62.2685 366.125 62.1222 365.995 61.9446 365.929C53.8293 363.125 46.2784 358.898 39.6454 353.446C39.5919 353.4 39.53 353.366 39.4631 353.344C39.3963 353.323 39.3259 353.314 39.256 353.32C39.186 353.326 39.1178 353.345 39.0554 353.377C38.9929 353.409 38.9373 353.453 38.8919 353.507C38.8464 353.56 38.8119 353.622 38.7904 353.689C38.7689 353.756 38.7607 353.826 38.7664 353.896C38.772 353.966 38.7914 354.034 38.8235 354.097C38.8555 354.159 38.8995 354.215 38.953 354.26C42.1095 357.111 50.5201 364.687 61.5373 367.375ZM68.0743 356.113C69.0722 356.48 69.5406 354.932 68.5631 354.566C56.7516 350.147 55.9574 347.54 55.2446 348.619C55.1644 348.742 55.1345 348.891 55.161 349.035C55.1876 349.179 55.2686 349.307 55.3872 349.393C59.3426 352.115 63.6 354.371 68.0743 356.113ZM222.58 334.955C218.507 337.521 203.519 347.784 199.955 350.574C199.222 351.165 200.139 352.366 200.892 351.796C208.407 346.237 215.799 340.677 223.11 335.83C223.66 335.443 223.11 334.588 222.58 334.955ZM216.308 359.066C215.473 359.779 216.634 360.981 217.449 360.288C219.078 358.964 232.193 347.377 234.758 344.465C235.247 343.915 234.433 343.141 233.944 343.691C231.459 346.461 219.22 356.623 216.308 359.066ZM242.477 365.481C244.513 363.445 255.347 352.651 256.406 349.352C256.63 348.68 255.591 348.375 255.367 349.047C254.329 352.102 243.841 361.795 241.336 364.32C240.562 364.992 241.723 366.194 242.477 365.481ZM296.219 132.714C296.245 132.626 296.248 132.533 296.228 132.444C296.208 132.355 296.165 132.273 296.104 132.205C296.042 132.137 295.964 132.087 295.877 132.058C295.79 132.03 295.697 132.024 295.608 132.042C288.423 133.509 281.367 135.552 274.51 138.151C273.553 138.518 274.001 140.066 274.999 139.699C293.856 132.49 295.893 133.61 296.219 132.714ZM295.628 147.987C290.7 149.82 271.191 155.909 266.344 157.274C266.162 157.356 266.017 157.501 265.933 157.682C265.849 157.863 265.833 158.068 265.887 158.26C265.941 158.452 266.062 158.618 266.228 158.729C266.394 158.839 266.594 158.886 266.792 158.862C271.944 157.498 291.229 150.716 295.954 148.965C296.084 148.922 296.191 148.829 296.252 148.707C296.313 148.584 296.323 148.443 296.28 148.313C296.237 148.184 296.144 148.076 296.021 148.015C295.899 147.954 295.758 147.944 295.628 147.987ZM200.302 161.632C205.026 162.955 232.702 169.777 240.196 170.164C241.031 170.164 241.255 169.065 240.461 168.902C233.761 167.558 201.768 160.328 200.688 160.125C200.489 160.073 200.277 160.104 200.099 160.209C199.921 160.314 199.793 160.485 199.742 160.685C199.69 160.885 199.72 161.097 199.825 161.274C199.93 161.452 200.102 161.58 200.302 161.632ZM272.555 116.544C265.916 120.862 258.911 124.69 252.068 128.763C251.903 128.853 251.773 128.996 251.699 129.169C251.625 129.342 251.612 129.535 251.661 129.717C251.711 129.898 251.82 130.058 251.972 130.169C252.123 130.281 252.308 130.338 252.496 130.331C254.023 130.331 271.272 118.785 272.535 117.95C273.044 117.603 273.655 117.318 273.288 116.768C273.259 116.702 273.215 116.643 273.16 116.595C273.106 116.547 273.042 116.511 272.973 116.49C272.903 116.469 272.83 116.463 272.758 116.472C272.686 116.481 272.617 116.506 272.555 116.544ZM258.768 115.18C249.421 120.393 243.373 123.448 237.263 127.684C237.115 127.796 237.014 127.96 236.979 128.142C236.944 128.325 236.978 128.514 237.074 128.673C237.17 128.832 237.322 128.95 237.499 129.004C237.677 129.059 237.869 129.045 238.037 128.967C245.348 125.118 252.292 120.353 259.379 116.198C259.446 116.158 259.504 116.105 259.551 116.043C259.597 115.98 259.631 115.909 259.65 115.833C259.669 115.758 259.672 115.679 259.661 115.602C259.65 115.525 259.623 115.451 259.583 115.384C259.543 115.317 259.49 115.259 259.427 115.212C259.365 115.166 259.293 115.132 259.218 115.113C259.142 115.094 259.063 115.09 258.986 115.102C258.909 115.113 258.835 115.14 258.768 115.18ZM247.71 113.347C228.568 123.387 228.405 123.407 228.405 124.14C228.405 124.369 228.494 124.589 228.654 124.753C228.814 124.916 229.031 125.011 229.26 125.016C229.912 125.016 238.73 119.416 248.24 114.325C248.369 114.255 248.466 114.136 248.508 113.994C248.55 113.853 248.534 113.701 248.464 113.571C248.394 113.442 248.275 113.345 248.133 113.303C247.992 113.261 247.84 113.277 247.71 113.347ZM232.763 111.026C226.28 114.011 220.055 117.525 214.149 121.534C213.976 121.652 213.854 121.832 213.811 122.037C213.767 122.243 213.804 122.457 213.914 122.636C214.024 122.814 214.199 122.943 214.403 122.996C214.606 123.049 214.822 123.021 215.005 122.919C220.946 119.024 227.099 115.461 233.435 112.248C234.168 111.82 233.475 110.639 232.763 111.026ZM304.833 217.227C298.133 219.874 291.168 221.952 284.468 224.293C284.284 224.363 284.128 224.494 284.027 224.663C283.926 224.833 283.885 225.032 283.911 225.227C283.937 225.423 284.028 225.604 284.17 225.742C284.312 225.879 284.496 225.964 284.692 225.984C286.525 225.984 301.29 219.976 303.021 219.284C305.424 218.306 305.607 218.327 305.688 217.858C305.718 217.747 305.714 217.63 305.677 217.521C305.639 217.413 305.569 217.318 305.477 217.25C305.384 217.182 305.273 217.143 305.158 217.139C305.043 217.135 304.93 217.165 304.833 217.227ZM248.525 246.124C248.706 246.095 248.871 246.002 248.99 245.862C249.108 245.722 249.174 245.544 249.174 245.361C249.174 245.177 249.108 245 248.99 244.86C248.871 244.72 248.706 244.627 248.525 244.597C243.719 244.597 215.107 242.662 212.48 242.275C211.665 242.275 211.4 243.375 212.215 243.497C224.246 245.186 236.376 246.064 248.525 246.124Z" fill="black"/>
<path d="M369.205 250.238C369.152 250.123 369.073 250.023 368.974 249.945C368.875 249.867 368.759 249.814 368.635 249.79C368.635 249.79 331.979 244.862 317.886 243.192C318.07 238.08 319.047 204.642 318.599 203.562C318.422 203.158 318.14 202.809 317.781 202.551C317.423 202.293 317.002 202.136 316.563 202.096C315.117 201.831 304.934 200.06 300.495 199.53C304.201 177.312 305.545 153.18 304.242 121.432C304.099 118.153 304.038 117.909 303.774 117.685C303.509 117.461 228.425 106.851 216.206 104.489C217.106 101.541 216.858 98.3624 215.514 95.5894C207.083 81.7415 186.596 73.7586 170.08 78.7275C169.408 78.9312 169.53 79.5828 169.612 79.9698H165.946C165.633 78.4672 164.889 77.0886 163.803 76.0033C162.718 74.918 161.339 74.1732 159.837 73.8604C158.596 72.3017 157.021 71.0408 155.229 70.1704C153.437 69.2999 151.472 68.842 149.48 68.8303C147.488 68.8186 145.518 69.2533 143.716 70.1026C141.913 70.952 140.324 72.1942 139.065 73.7382C138.124 73.1667 137.068 72.8125 135.973 72.7013C134.878 72.5902 133.772 72.7249 132.736 73.0957C131.7 73.4665 130.759 74.0639 129.983 74.8445C129.208 75.6251 128.616 76.569 128.251 77.6075C127.549 77.6827 126.871 77.9075 126.262 78.2668C125.654 78.626 125.129 79.1113 124.724 79.6901C124.319 80.2689 124.043 80.9277 123.913 81.6223C123.784 82.3168 123.805 83.031 123.975 83.7169C122.467 84.309 121.212 85.4067 120.425 86.8221C119.637 88.2374 119.366 89.8825 119.657 91.4758C118.616 92.0656 117.804 92.9897 117.353 94.0985C116.902 95.2073 116.839 96.4358 117.173 97.5851C116.585 97.5975 116.021 97.8217 115.584 98.2164C102.144 109.702 80.7203 126.34 80.9647 143.752C80.9647 151.429 85.3634 158.76 93.7537 165.542C102.732 174.905 113.8 182.01 126.052 186.273V188.309C117.641 185.173 95.9938 177.129 92.0634 176.681C88.133 176.233 86.8501 176.681 63.8992 179.43C10.4829 185.784 3.76255 186.741 3.51818 187.169C3.2738 187.597 3.3349 207.737 3.35526 209.916C2.9887 210.222 1.78719 211.26 1.15589 211.708C1.02101 211.795 0.913275 211.918 0.844998 212.063C0.77672 212.209 0.75065 212.37 0.769765 212.529C0.788879 212.689 0.852408 212.839 0.953095 212.964C1.05378 213.089 1.18757 213.183 1.33917 213.236C1.97047 213.48 2.6425 213.704 3.37563 213.908C3.37563 219.732 3.86438 246.348 3.88474 247.163C3.90511 247.978 4.2513 247.896 7.06162 249.199C8.62969 249.953 11.1345 251.053 11.1345 251.562C11.1345 252.071 8.97589 251.012 7.95766 250.625C5.26953 249.627 4.69933 249.362 4.21058 249.79C4.11883 249.857 4.04614 249.947 3.99971 250.05C3.95328 250.154 3.9347 250.268 3.94584 250.381C3.94584 252.885 4.27167 262.599 4.43459 265.043C4.44504 265.211 4.50746 265.372 4.61324 265.504C4.71902 265.635 4.86295 265.73 5.02516 265.776C11.3178 268.261 52.3728 283.045 52.3728 283.045C53.167 283.045 105.626 267.059 121.409 262.212C120.504 270.542 120.463 278.943 121.287 287.281C115.177 286.65 92.1652 283.636 86.0762 282.842C86.0169 282.833 85.9563 282.842 85.902 282.867C85.8477 282.892 85.802 282.933 85.7707 282.984C85.4653 283.493 85.5671 283.453 85.3634 283.269C82.7975 281.09 79.2541 278.158 77.6249 278.097C77.1768 278.106 76.7368 278.217 76.3381 278.422C75.9394 278.627 75.5925 278.919 75.3237 279.278C74.4684 280.154 61.5776 295.855 60.1928 297.912C60.1096 298.043 60.068 298.197 60.0735 298.353C60.0791 298.508 60.1315 298.659 60.2239 298.784C60.3163 298.91 60.4444 299.004 60.5915 299.056C60.7385 299.107 60.8977 299.113 61.0481 299.072L76.851 296.201C77.2991 296.343 78.8875 296.73 79.9057 297.138C79.3877 299.263 79.0068 301.419 78.7653 303.593C78.7565 303.653 78.7653 303.713 78.7906 303.767C78.816 303.822 78.8568 303.867 78.9079 303.899C112.611 323.245 118.924 333.346 132.263 338.03C153.87 345.605 172.361 337.663 175.66 314.448C174.845 300.864 174.825 298.747 178.104 269.646C178.213 267.702 178.778 265.811 179.753 264.127C180.14 263.597 184.335 259.871 186.84 257.651C188.999 255.716 190.037 254.474 191.239 254.84C192.44 255.207 192.848 257.04 191.239 258.608C189.63 260.176 182.869 264.86 182.156 267.141C181.444 269.421 179.672 306.852 179.814 307.035C192.461 322.471 206.288 322.308 214.577 304.245C215.764 301.617 216.414 298.778 216.491 295.895C218.914 296.792 222.275 297.932 223.334 298.38C223.619 308.379 224.128 318.235 224.698 326.137C217.122 322.471 216.959 322.064 215.819 322.41C215.391 322.41 209.974 325.709 196.737 333.57C183.969 341.166 168.084 350.615 165.498 351.898C165.38 351.966 165.281 352.064 165.213 352.182C165.144 352.3 165.108 352.434 165.108 352.57C165.108 352.707 165.144 352.841 165.213 352.959C165.281 353.077 165.38 353.174 165.498 353.242C169.204 355.686 259.379 380.673 259.969 380.714C260.433 380.737 260.895 380.636 261.307 380.422C261.718 380.207 262.065 379.886 262.311 379.492C263.309 378.209 283.328 351.918 283.755 351.348C301.187 354.79 316.053 357.702 316.339 357.702C316.339 357.702 358.514 344.261 360.489 343.589C365.417 342.205 366.211 339.842 366.089 335.036C365.641 315.445 369.205 250.442 369.205 250.238ZM76.7289 294.246C76.7289 294.775 76.8714 294.837 76.0772 294.959C75.6495 294.959 67.3 296.547 62.6162 297.321C65.5894 293.37 76.0772 280.581 76.7492 279.97C77.91 278.932 79.9872 280.927 81.1276 282.007C79.5124 283.578 78.2767 285.497 77.5145 287.618C76.7523 289.739 76.4836 292.006 76.7289 294.246ZM80.3538 295.57C77.7675 294.531 78.1747 295.57 78.1544 294.124C78.0057 292.097 78.2923 290.061 78.9947 288.154C79.6972 286.247 80.7993 284.512 82.2273 283.066C82.9197 283.697 84.2638 284.634 84.7321 285.102C83.5714 287.118 80.9851 293.594 80.3538 295.57ZM348.84 249.037C356.09 249.994 362.057 250.768 365.132 251.073C324.057 266.265 321.735 271.152 313.915 269.829C271.15 262.66 236.53 258.913 229.076 258.14C232.538 257.081 271.984 244.821 275.426 243.884C287.095 241.054 292.471 241.665 348.84 249.037ZM316.97 204.682C316.97 206.475 316.237 240.035 316.257 242.988C299.64 240.952 291.555 240.076 284.122 240.728C279.137 241.272 274.222 242.336 269.459 243.905V240.606C296.32 233.539 296.32 233.621 296.178 233.01C296.035 232.399 276.668 235.657 269.52 236.594C269.52 236.594 269.52 222.583 269.419 221.789C273.084 220.587 311.899 206.576 316.99 204.682H316.97ZM315.687 203.685C309.292 206.047 270.07 219.976 268.685 220.526C267.688 220.098 264.042 219.121 262.352 218.653C272.534 214.417 296.85 203.176 298.601 202.178C299.058 201.928 299.471 201.605 299.823 201.221C307.826 202.381 313.549 203.277 315.707 203.685H315.687ZM299.029 199.082C298.938 199.477 298.751 199.844 298.484 200.149C298.218 200.455 297.88 200.69 297.501 200.834C297.298 200.834 262.026 217.125 255.713 219.549C255.713 213.256 255.387 188.452 255.387 188.452C257.648 187.637 268.4 182.343 269.215 181.874C269.275 181.834 269.318 181.774 269.338 181.705C269.358 181.636 269.353 181.562 269.324 181.497C269.294 181.431 269.243 181.378 269.178 181.346C269.114 181.315 269.04 181.307 268.971 181.324C267.056 181.752 255.917 184.42 255.387 184.542C255.387 179.471 255.387 160.797 255.51 155.563C257.974 154.81 273.329 149.454 276.424 148.089C276.492 148.054 276.546 147.996 276.576 147.926C276.606 147.855 276.61 147.776 276.587 147.702C276.322 146.969 275.63 148.374 255.55 150.737C255.55 146.379 255.55 141.226 255.713 135.972C256.283 135.789 298.825 120.475 302.552 119.253C303.427 141.349 303.692 170.307 299.049 199.082H299.029ZM216.002 105.874C228.017 108.439 288.846 116.972 299.13 118.5C290.496 121.167 256.711 134.221 256.019 134.384C253.066 135.178 218.344 126.869 207.938 125.22C209.282 122.552 210.545 119.864 211.705 117.074C216.063 114.773 219.179 112.573 223.415 110.211C223.544 110.107 223.631 109.96 223.66 109.797C223.69 109.634 223.66 109.466 223.577 109.323C223.493 109.18 223.361 109.072 223.204 109.018C223.047 108.964 222.876 108.969 222.723 109.03C221.093 109.967 213.66 114.04 212.744 114.569C213.681 112.472 215.31 108.256 216.002 105.874ZM205.963 148.11C216.145 150.757 248.626 155.176 253.921 155.563V184.603C251.172 184.318 241.702 182.302 233.557 182.831C233.476 182.831 233.398 182.863 233.341 182.921C233.283 182.978 233.251 183.056 233.251 183.137C233.251 183.218 233.283 183.295 233.341 183.353C233.398 183.41 233.476 183.442 233.557 183.442C240.427 184.648 247.225 186.232 253.921 188.187C253.921 189.674 253.921 214.661 254.023 219.732C246.753 218.123 217.713 211.586 207.184 209.061C204.277 188.478 199.956 168.12 194.253 148.13C199.133 141.124 203.522 133.789 207.388 126.177C215.025 127.989 250.337 135.463 254.227 136.095C254.104 140.575 253.941 150.818 253.941 150.818C248.952 150.818 214.414 148.436 206.085 147.519C206.012 147.516 205.941 147.539 205.884 147.583C205.827 147.628 205.787 147.691 205.772 147.762C205.758 147.833 205.769 147.907 205.804 147.971C205.838 148.035 205.895 148.084 205.963 148.11ZM166.231 81.3342L169.938 81.1509C170.231 84.0269 169.862 86.9319 168.858 89.6429C168.145 89.3986 166.557 88.7673 166.19 88.6247C166.291 87.2666 166.016 85.907 165.396 84.6944C165.912 83.6471 166.197 82.5011 166.231 81.3342ZM166.007 90.0706C168.634 91.0277 168.451 90.7834 168.369 90.987C167.779 92.3514 167.718 91.9645 170.793 94.0621C174.601 96.6891 183.256 102.636 184.458 103.613C184.009 104.326 181.851 107.034 179.814 109.519C176.088 114.142 172.076 118.601 170.732 124.283C170.244 124.137 169.747 124.021 169.245 123.937C169.673 123.448 170.019 122.98 170.019 122.98C170.969 121.006 171.158 118.751 170.548 116.646C168.819 108.992 165.817 101.681 161.67 95.0192C162.752 94.6287 163.718 93.9699 164.477 93.1044C165.235 92.2389 165.762 91.1951 166.007 90.0706ZM177.269 143.019C175.558 142.265 168.94 139.17 166.292 137.846C168.177 134.06 169.047 129.85 168.818 125.627C169.64 125.775 170.445 126.007 171.221 126.32C171.77 126.503 172.055 126.645 172.239 127.073C174.608 132.145 176.299 137.506 177.269 143.019ZM146.6 114.182C145.529 113.857 144.535 113.319 143.676 112.602C142.817 111.885 142.112 111.002 141.601 110.007C141.09 109.012 140.784 107.924 140.702 106.808C140.619 105.692 140.762 104.571 141.122 103.511C142.213 104.127 143.439 104.463 144.692 104.491C145.945 104.519 147.185 104.238 148.303 103.672C149.421 103.106 150.382 102.273 151.101 101.247C151.819 100.22 152.274 99.0327 152.424 97.7888C153.749 98.5839 155.326 98.8474 156.838 98.5262C158.349 98.205 159.683 97.323 160.57 96.0578C163.401 100.823 172.178 118.744 167.921 122.756C167.392 123.265 166.801 123.815 167.127 124.792C167.583 129.102 166.761 133.45 164.765 137.296C155.967 139.333 151.671 137.154 146.009 136.013C145.133 133.325 139.635 123.591 140.022 121.33C140.031 121.288 140.031 121.244 140.021 121.202C140.011 121.16 139.991 121.121 139.964 121.088C139.936 121.054 139.901 121.028 139.862 121.01C139.823 120.992 139.78 120.983 139.737 120.984C133.628 120.699 133.485 113.51 137.823 113.775C138.467 113.836 139.078 114.092 139.574 114.508C142.445 116.545 146.6 117.909 146.824 114.508C146.831 114.436 146.813 114.364 146.772 114.304C146.731 114.244 146.67 114.201 146.6 114.182ZM143.464 137.663C145.928 136.278 153.381 142.285 164.948 139.19C164.948 139.658 163.278 152.081 163.054 153.893C158.146 152.142 141.875 145.992 140.511 144.994C141.225 142.45 142.215 139.991 143.464 137.663ZM139.085 143.589C130.939 141.858 112.041 137.235 110.147 136.298C111.043 133.875 121.857 117.624 123.364 115.587C125.298 120.292 132.874 123.957 139.655 125.77C140.368 127.114 143.28 133.569 144.421 135.83C142.608 135.83 142.038 136.624 141.366 138.07C140.694 139.516 139.493 142.509 139.085 143.589ZM124.301 90.3761C125.665 88.3396 125.828 87.7694 130.206 87.3825C134.992 86.9345 136.743 88.1563 136.764 88.1767C136.834 88.2301 136.887 88.303 136.916 88.3863C136.945 88.4696 136.949 88.5596 136.927 88.6451C136.901 88.7297 136.851 88.8045 136.782 88.8592C136.712 88.9139 136.628 88.9458 136.54 88.9506C133.383 89.256 129.534 90.0502 128.883 91.1092C128.799 91.2442 128.772 91.407 128.808 91.5617C128.845 91.7163 128.941 91.8502 129.076 91.934C129.211 92.0177 129.374 92.0443 129.528 92.0081C129.683 91.9718 129.817 91.8755 129.901 91.7405C130.532 90.7834 135.644 90.3761 138.719 90.4168C139.431 90.7426 140.307 91.5165 139.472 92.0052C136.927 92.0052 132.141 92.7791 131.326 93.7566C131.021 94.0824 131.326 94.8156 131.673 94.5712C132.019 94.3268 131.673 94.3472 132.813 94.1028C134.593 93.8347 136.389 93.6986 138.189 93.6955C139.411 93.6955 139.737 94.7341 138.047 95.1821C135.593 95.6637 133.322 96.8203 131.489 98.5219C129.453 100.212 127.681 105.1 125.645 106.505C125.347 106.69 125.096 106.941 124.911 107.238C123.058 105.059 119.881 100.009 118.802 98.4608C122.264 95.7931 122.223 93.5733 124.301 90.3761ZM94.7311 178.942C96.4621 179.369 118.761 187.271 123.832 189.124L55.7126 203.277C53.5639 203.79 51.334 203.867 49.1552 203.501C45.8969 202.89 13.8023 190.549 7.36709 188.065C87.2981 178.331 88.7847 177.455 94.7311 178.942ZM3.35526 212.258C4.21793 211.639 5.03465 210.959 5.79901 210.222C7.69292 211.403 11.7862 213.948 13.395 214.906C9.99774 214.228 6.64494 213.344 3.35526 212.258ZM6.06375 264.636C6.06375 262.111 5.69719 254.128 5.575 251.521C7.79474 252.152 16.9995 255.268 18.7509 255.39C18.8186 255.4 18.8878 255.388 18.9473 255.354C19.0069 255.32 19.0533 255.267 19.0791 255.203C19.1049 255.14 19.1087 255.07 19.0898 255.004C19.0709 254.938 19.0305 254.881 18.9749 254.84C17.2846 253.476 7.2449 247.733 5.49354 246.695C5.39172 240.524 4.67896 215.252 4.67896 214.295C6.14521 214.641 16.5311 216.82 16.7755 216.881C16.9322 216.967 17.1167 216.988 17.2886 216.938C17.4604 216.889 17.6055 216.773 17.6919 216.616C17.7783 216.46 17.799 216.275 17.7494 216.103C17.6997 215.931 17.5838 215.786 17.4272 215.7C16.1239 214.844 7.2449 209.305 6.87833 208.816C6.73749 208.635 6.55691 208.488 6.35041 208.386C6.14392 208.285 5.91699 208.232 5.68701 208.232C5.45703 208.232 5.2301 208.285 5.0236 208.386C4.81711 208.488 4.63652 208.635 4.49568 208.816C4.49568 206.556 4.63823 197.535 4.63823 197.535C7.12271 198.492 17.6716 202.198 20.1764 203.318C20.2898 203.372 20.4201 203.379 20.5385 203.337C20.6568 203.295 20.7537 203.207 20.8077 203.094C20.8617 202.981 20.8685 202.85 20.8265 202.732C20.7844 202.614 20.6971 202.517 20.5837 202.463C18.0585 201.302 6.95979 196.476 4.67896 195.824C4.67896 194.215 4.78078 188.92 4.78078 188.92C10.0348 191.486 44.2066 204.825 50.3771 205.436V222.726C46.6096 222.461 34.9204 220.689 30.1958 220.913C30.1306 220.93 30.073 220.969 30.0319 221.022C29.9908 221.075 29.9685 221.141 29.9685 221.208C29.9685 221.276 29.9908 221.341 30.0319 221.395C30.073 221.448 30.1306 221.486 30.1958 221.504C33.841 222.196 47.9741 226.676 50.4382 227.389C50.4382 230.423 50.5604 242.398 50.6215 246.695C49.8476 246.511 48.4221 246.084 46.5485 245.493C42.6182 244.292 36.6717 242.438 30.2569 241.074C30.1816 241.059 30.1035 241.072 30.0365 241.109C29.9694 241.146 29.9177 241.206 29.8903 241.278C29.7681 241.685 28.7295 241.074 50.6418 250.32C50.764 255.818 51.436 277.16 51.7211 281.274C44.8583 278.83 10.4218 266.224 6.06375 264.554V264.636ZM121.592 260.563C109.74 264.005 54.9388 280.805 53.3707 281.274C53.3707 278.565 52.2303 251.216 52.1895 250.381C66.4651 244.841 65.7727 245.228 65.7727 244.841C65.7727 244.455 66.0375 244.841 52.2099 246.735C52.2099 240.626 52.0266 234.069 52.0063 227.552C56.853 225.984 78.6839 220.465 84.1008 219.528C84.141 219.522 84.1794 219.507 84.2139 219.486C84.2484 219.464 84.2783 219.436 84.3019 219.403C84.3256 219.37 84.3424 219.332 84.3516 219.293C84.3608 219.253 84.3621 219.212 84.3554 219.172C84.3487 219.132 84.3342 219.093 84.3127 219.059C84.2911 219.024 84.263 218.994 84.2299 218.971C84.1968 218.947 84.1594 218.93 84.1198 218.921C84.0802 218.912 84.0391 218.911 83.999 218.917C80.6389 219.264 56.9956 222.644 52.0266 222.685C52.0266 220.852 51.9248 210.588 51.9248 205.375C56.7919 204.886 53.0245 205.558 125.991 190.163C125.38 203.44 123.629 219.528 128.027 231.89C124.743 241.163 122.583 250.796 121.592 260.583V260.563ZM155.54 253.313C154.564 257.465 152.153 261.139 148.733 263.687C145.313 266.236 141.103 267.495 136.845 267.243C136.526 267.243 136.221 267.116 135.996 266.891C135.77 266.665 135.644 266.36 135.644 266.041C135.644 265.722 135.77 265.417 135.996 265.191C136.221 264.966 136.526 264.839 136.845 264.839C140.583 264.999 144.268 263.914 147.324 261.755C150.379 259.595 152.631 256.483 153.727 252.906C153.784 252.665 153.934 252.458 154.144 252.328C154.354 252.198 154.607 252.157 154.847 252.213C155.088 252.27 155.296 252.42 155.426 252.63C155.555 252.84 155.597 253.093 155.54 253.333V253.313ZM129.697 231.91C125.095 219.019 126.907 206.352 127.335 186.68H127.681C127.848 186.729 128.028 186.709 128.181 186.625C128.334 186.541 128.447 186.4 128.496 186.232C128.544 186.065 128.524 185.885 128.44 185.732C128.356 185.579 128.215 185.466 128.048 185.418C113.279 179.941 100.072 170.936 89.5789 159.188C87.3288 157.024 85.5559 154.413 84.3741 151.523C83.1922 148.633 82.6274 145.528 82.716 142.408C83.6325 125.668 104.547 109.824 116.908 99.0718C117.173 98.9088 117.234 98.9088 117.417 99.2143C117.601 99.5198 123.303 108.053 124.525 109.295C123.533 110.424 122.971 111.866 122.936 113.368C117.815 120.446 113.057 127.78 108.681 135.341C108.416 136.135 108.05 137.215 108.946 137.948C109.353 138.274 134.076 144.057 138.698 144.953C138.698 145.931 138.922 146.684 141.57 147.784C142.547 148.191 158.88 154.647 163.462 155.93C163.58 155.964 163.705 155.969 163.826 155.945C163.946 155.92 164.059 155.866 164.154 155.787C164.643 155.441 164.521 155.074 164.582 152.468C165.837 152.711 167.13 152.678 168.371 152.369C169.612 152.061 170.771 151.485 171.766 150.682C172.761 149.879 173.568 148.868 174.132 147.72C174.696 146.572 175.002 145.315 175.029 144.037C178.735 145.605 179.102 144.831 178.776 141.858C178.667 140.856 178.49 139.862 178.246 138.885C177.737 136.848 174.601 128.539 173.766 126.523C173.591 126.119 173.332 125.757 173.005 125.462C172.678 125.167 172.292 124.946 171.872 124.813C172.682 122.27 173.826 119.845 175.273 117.604C176.76 115.323 185.985 104.611 186.046 103.817C186.052 103.5 185.979 103.187 185.833 102.906C185.688 102.625 185.474 102.385 185.211 102.208C184.498 101.597 173.155 93.7973 169.612 91.7201C171.229 88.1009 171.787 84.097 171.221 80.1734C178.835 78.5377 186.751 79.0124 194.116 81.5461C201.48 84.0799 208.013 88.5765 213.009 94.5508C214.09 95.9866 214.802 97.6659 215.083 99.4413C215.363 101.217 215.203 103.034 214.617 104.733C209.731 119.555 202.721 133.59 193.805 146.399C193.56 145.564 192.4 141.878 192.074 140.84C192.031 140.688 191.929 140.56 191.792 140.484C191.654 140.408 191.492 140.389 191.341 140.432C191.19 140.475 191.062 140.577 190.985 140.714C190.909 140.852 190.89 141.014 190.933 141.165C197.224 163.54 202.121 186.283 205.596 209.265C206.899 217.247 207.103 219.447 203.845 226.228C183.297 241.379 152.709 248.792 129.697 231.91ZM224.046 258.649C222.997 271.369 222.752 284.142 223.313 296.893C221.664 296.099 218.65 295.101 216.593 294.409C217.061 282.373 213.986 253.578 207.938 235.229C207.062 232.582 206.105 229.975 205.107 227.45C206.882 224.527 207.91 221.212 208.101 217.797C218.894 220.241 252.903 225.943 253.656 225.739C256.134 225.458 258.591 225.009 261.008 224.395C261.941 223.25 262.414 221.798 262.332 220.322C265.631 221.178 267.24 221.585 267.606 221.768C267.912 222.888 267.789 234.557 267.789 236.797L232.762 233.763C232.457 233.763 232.436 233.763 232.396 233.885C231.846 235.29 266.14 240.443 267.667 240.606C267.667 241.522 267.667 242.642 267.789 244.373C233.149 255.309 224.107 257.997 224.046 258.649ZM260.56 378.8C257.179 378.229 175.965 354.912 167.697 352.489C172.911 349.902 188.225 340.759 213.294 325.282C216.186 323.489 216.002 323.245 217.591 324.039L224.8 327.501C225.126 331.839 225.431 335.505 225.737 338.193C225.932 338.711 226.258 339.171 226.682 339.527C227.107 339.884 227.615 340.126 228.16 340.229C228.628 340.351 257.403 346.094 281.963 350.982C267.382 369.819 260.967 378.494 260.56 378.8ZM316.074 320.435C311.704 319.967 307.375 319.177 303.122 318.073C299.884 317.36 299.762 317.238 299.64 317.604C299.517 317.971 298.906 317.604 315.931 323.591C315.789 328.764 315.32 351.776 315.402 356.032C305.871 353.996 229.423 338.722 229.423 338.722C226.755 338.172 227.142 338.111 226.694 331.024L247.058 331.696C247.139 331.696 247.217 331.664 247.274 331.607C247.332 331.55 247.364 331.472 247.364 331.391C247.364 331.31 247.332 331.232 247.274 331.175C247.217 331.118 247.139 331.085 247.058 331.085L226.266 325.119C225.635 315.303 224.902 288.686 224.902 283.514C240.277 283.514 239.686 283.656 239.747 283.249C239.808 282.842 240.643 283.249 224.963 278.28C224.963 273.78 225.675 259.524 225.675 259.524C228.425 259.83 313.854 271.458 317.173 271.743C317.173 276.692 317.051 281.803 316.909 287.342C311.268 287.607 279.662 282.251 279.499 283.269C279.49 283.307 279.489 283.346 279.495 283.384C279.502 283.422 279.516 283.458 279.537 283.49C279.558 283.523 279.585 283.551 279.617 283.572C279.649 283.594 279.685 283.608 279.723 283.616C285.303 285.123 310.474 289.827 316.827 290.58C316.807 295.142 316.257 315.71 316.074 320.435ZM366.985 258.832C362.912 261.174 337.029 271.825 334.992 273.087C334.908 273.161 334.851 273.262 334.831 273.372C334.812 273.483 334.832 273.597 334.887 273.695C334.942 273.794 335.029 273.87 335.133 273.911C335.238 273.952 335.354 273.956 335.461 273.922C339.534 271.601 359.226 266.021 366.843 260.848C364.806 287.139 364.358 324.386 364.318 327.44C358.554 329.986 352.852 332.776 346.987 335.057C346.857 335.111 346.753 335.213 346.696 335.342C346.64 335.471 346.634 335.616 346.682 335.749C346.926 336.36 347.354 336.034 349.94 335.077C354.705 333.305 359.613 331.472 364.318 329.314V336.788C364.318 339.048 363.564 340.372 362.281 341.044C361.385 341.451 321.002 354.444 317.031 355.747C317.173 352.02 317.784 323.693 317.784 323.388C337.416 314.672 336.214 315.242 336.113 314.957C336.089 314.882 336.038 314.82 335.97 314.782C335.902 314.744 335.822 314.734 335.746 314.753C330.186 316.158 317.968 320.251 317.886 320.272L318.171 309.764C323.324 308.725 346.356 302.636 354.257 297.85C354.316 297.818 354.368 297.775 354.41 297.723C354.452 297.671 354.484 297.611 354.503 297.546C354.522 297.482 354.528 297.415 354.52 297.348C354.513 297.281 354.493 297.217 354.461 297.158C354.429 297.099 354.386 297.047 354.333 297.005C354.281 296.963 354.221 296.932 354.157 296.913C354.093 296.894 354.025 296.888 353.959 296.895C353.892 296.902 353.827 296.922 353.769 296.954C349.37 298.808 322.59 306.791 318.212 307.89C318.395 301.19 318.538 295.671 318.64 290.499C326.058 287.786 333.308 284.631 340.348 281.05C340.408 281.01 340.452 280.95 340.471 280.881C340.491 280.812 340.486 280.738 340.457 280.672C340.428 280.607 340.376 280.553 340.312 280.522C340.247 280.49 340.174 280.482 340.104 280.5C335.257 282.19 321.165 286.385 318.701 287.118C318.701 282.149 318.843 277.058 318.884 271.58C322.957 270.379 362.892 253.822 367.759 251.847C367.372 254.148 367.169 256.49 367.026 258.832H366.985Z" fill="black"/>
</svg>
