<svg width="218" height="225" viewBox="0 0 218 225" fill="none" xmlns="http://www.w3.org/2000/svg">
<path d="M18.5925 107.254C16.2608 87.7698 17.3098 68.2042 21.5732 48.9419C22.1927 46.1441 24.7568 48.6894 42.8332 44.6408C44.2162 44.3316 45.5874 44.0083 46.9455 43.6744C47.5544 42.5475 48.2294 41.4253 48.9799 40.3208C33.2398 44.0579 20.8876 45.3275 20.4475 45.711C19.6663 46.3907 19.4232 46.6786 18.8769 49.0198C13.6164 71.5696 13.4796 95.461 17.7051 118.361C17.914 114.719 18.2102 110.977 18.5913 107.253L18.5925 107.254Z" fill="black"/>
<path d="M194.952 60.638C191.86 57.6786 186.648 54.5055 184.435 53.7185C181.353 52.6211 153.979 49.9968 115.225 26.9101C100.744 18.2843 102.549 16.7597 97.1631 20.6124C95.2775 21.9611 93.3033 23.2391 91.2608 24.4486C92.1505 24.5843 93.0331 24.7424 93.9099 24.9241C100.997 20.5345 99.9149 19.6259 101.583 20.8767C118.467 33.5381 148.635 48.5241 177.882 54.4772C181.038 55.1191 182.81 54.2212 182.313 57.1782C181.577 61.5596 179.845 88.0695 167.144 118.922C150.533 159.274 116.245 196.36 83.7949 213.559C81.3322 214.864 78.8495 216.655 75.4877 214.03C67.813 208.035 62.3885 203.324 55.3003 194.875C42.9799 180.19 38.9112 173.046 33.4962 160.261C32.636 159.933 31.7227 159.581 30.6866 159.193C30.5663 159.148 30.4471 159.103 30.3291 159.058C38.6599 177.639 50.1035 194.274 64.1184 207.297C66.738 209.731 85.0386 225.613 88.6872 224.551C99.6435 221.362 130.46 200.81 151.875 174.319C190.558 126.465 197.129 62.7254 194.951 60.6404L194.952 60.638ZM193.399 62.2428C188.279 124.094 155.043 183.87 99.1373 217.224C86.9868 224.473 87.7986 223.375 85.3147 221.53C84.6846 221.061 81.1977 218.431 81.1104 218.343C80.0508 217.276 79.6885 218.625 88.1349 213.938C116.827 198.018 141.309 170.721 157.275 144.353C170.609 122.331 176.596 103.883 180.916 82.442C186.807 53.2123 182.774 54.9551 186.938 57.2679C189.02 58.4243 190.908 59.8769 192.887 61.1902C193.417 61.5419 193.413 61.5537 193.399 62.2428Z" fill="black"/>
<path d="M65.5739 65.1218C105.196 66.1377 104.704 71.0595 105.188 66.4103C106.765 51.2367 98.4275 42.7124 84.9566 41.9336C78.1669 45.2824 71.2673 47.8159 64.8021 49.7476C63.0899 52.0957 61.8026 54.9384 60.8586 58.2365C60.1707 60.6413 59.97 62.3971 59.9747 64.5459C59.9759 65.3188 59.9241 64.9766 65.5739 65.1218Z" fill="black"/>
<path d="M39.6273 65.9715C41.4068 65.9384 40.8333 65.0582 40.9159 64.6334C41.2368 62.9825 41.592 59.2691 42.7378 54.7261C36.8366 55.6842 33.017 56.0559 32.6028 56.3651C32.1426 56.7073 31.7414 57.1297 31.6175 57.7433C30.8387 61.576 30.2039 65.3378 29.7012 69.0265C32.6205 67.2199 36.675 66.0269 39.6273 65.9715Z" fill="black"/>
<path d="M165.992 63.5172C164.492 62.9968 146.763 60.677 123.686 49.2038C123.378 49.0516 123.076 48.8994 122.776 48.7495C123.189 50.0605 123.526 51.421 123.779 52.83C126.238 66.4814 121.944 70.9925 123.968 71.5459C133.986 74.2894 138.842 76.096 140.676 87.3804C142.832 100.649 137.739 134.772 133.052 153.537C148.247 132.034 163.255 95.8209 167.249 65.6341C167.269 64.1226 167.116 63.9066 165.993 63.5172H165.992Z" fill="black"/>
<path d="M104.911 170.688C90.9515 170.688 80.0707 171.841 48.4951 164.669C62.6174 187.99 79.3427 199.964 81.8183 199.209C87.9236 197.347 96.4126 190.571 99.9183 187.907C109.099 180.931 114.937 175.484 120.415 169.322C115.446 170.379 109.587 170.429 104.911 170.688Z" fill="black"/>
<path d="M140.676 87.3804C138.842 76.0961 133.986 74.2895 123.968 71.546C121.944 70.9914 126.238 66.4814 123.779 52.83C119.117 26.9467 86.6848 17.6294 63.5568 28.0807C43.085 37.3319 41.8519 59.8062 40.915 64.6347C40.8324 65.0595 41.4058 65.9386 39.6264 65.9717C35.1861 66.0554 28.2512 68.7104 26.4399 72.156C18.2047 87.8241 15.1331 136.485 18.9882 148.222C20.075 151.531 19.5522 155.027 30.6855 159.193C36.3696 161.319 38.3732 162.36 47.9973 164.557C79.9576 171.854 90.8785 170.69 104.911 170.69C113.936 170.189 127.368 170.469 130.303 162.781C135.366 149.524 143.269 103.349 140.674 87.3816L140.676 87.3804ZM43.5145 65.3061C43.5853 62.0588 46.1636 50.6163 49.8594 44.2148C53.6826 37.5915 57.5058 34.3606 62.6907 31.4295C69.163 27.7715 81.1801 26.3461 82.6138 26.3177C90.8856 26.1537 98.9781 28.6294 105.371 32.0195C114.596 36.9106 118.411 42.702 120.282 50.1077C121.97 56.7948 121.917 64.7799 121.006 69.763C120.662 71.6451 120.939 70.7318 108.14 68.891C107.686 68.8261 107.577 68.7104 107.645 68.1995C112.29 33.5453 70.0468 32.2661 60.2563 52.4489C57.4857 58.16 57.6214 64.8931 57.6167 64.925C57.4999 65.5846 52.171 65.1055 52.171 65.2861C43.1487 65.2861 43.5039 65.8265 43.5145 65.3061ZM105.188 66.4106C104.705 71.0598 105.197 66.138 65.5746 65.1221C59.9248 64.9769 59.9755 65.3203 59.9743 64.5462C59.9708 62.3974 60.1702 60.6404 60.8581 58.2367C63.9273 47.5082 70.6392 41.5869 83.7289 41.8843C97.9184 42.2064 106.812 50.7815 105.187 66.4094L105.188 66.4106ZM130.168 153.511C127.875 163.548 128.001 164.482 118.744 166.595C113.69 167.749 90.7416 168.304 85.6004 167.65C81.8433 167.172 81.6521 169.084 55.1233 163.567C15.8352 155.399 22.9093 152.172 20.1363 139.033C18.5374 103.525 25.9278 77.0412 28.132 74.0122C29.9256 71.5483 31.4325 71.2262 32.9122 70.1654C33.3771 69.8326 33.186 70.0462 35.5495 69.2615C37.2558 68.6951 39.9143 68.6078 39.9426 68.6078C64.2884 66.6077 84.7815 68.6573 108.984 71.9519C120.95 73.5803 135.094 74.7343 137.287 83.9336C140.921 99.1839 133.476 139.034 130.169 153.51L130.168 153.511Z" fill="black"/>
<path d="M61.8533 95.3503C58.1505 102.175 59.3765 111.263 66.1532 117.178C66.44 117.428 66.5521 117.708 66.499 118.07C65.9727 121.696 65.1443 130.236 65.1644 134.75C65.1986 142.293 65.516 146.463 71.8951 149.157C76.411 151.065 81.1215 149.298 83.0143 143.429C83.806 140.973 83.8568 139.164 84.7961 130.648C85.9725 119.989 85.0521 120.32 86.1188 119.858C91.2129 117.649 96.15 111.31 96.0249 103.813C96.7495 86.9145 70.7895 78.8787 61.8521 95.3491L61.8533 95.3503ZM72.1866 125.112C69.9056 146.648 73.1329 148.881 69.4856 145.965C67.0076 143.984 66.9002 139.26 66.9379 135.809C67.0913 121.824 69.6649 117.753 68.1156 116.394C62.4374 111.422 59.5452 103.286 64.5272 95.2299C65.6871 93.3549 68.3539 91.3548 68.5333 91.1849C70.5346 89.2933 73.5731 89.0892 72.4061 90.3789C64.7431 98.8561 67.6884 108.225 73.1967 112.489C74.261 113.312 73.4633 113.041 72.1842 125.111L72.1866 125.112Z" fill="black"/>
<path d="M124.345 88.5108C123.97 103.759 118.463 164.428 115.948 157.346C115.311 155.552 122.631 90.1109 122.584 87.4559C122.483 81.8296 121.098 81.1747 121.93 80.7216C122.534 80.3924 123.233 81.3848 123.451 81.9606C124.244 84.0539 124.402 86.2723 124.347 88.512L124.345 88.5108Z" fill="black"/>
<path d="M13.2977 196.756C12.6204 196.525 18.8897 190.069 18.7752 188.87C18.6797 187.867 17.4867 187.287 16.6784 188.006C15.5786 188.985 13.5219 191.151 11.9218 192.783C11.2468 193.472 11.6008 187.796 9.2668 183.435C8.71102 182.396 7.3493 182.644 7.31036 183.905C7.2313 186.475 8.52576 193.291 8.96472 195.347C6.74632 194.785 0.370823 193.029 0.317723 195.347C0.305923 195.865 0.602104 196.17 1.00094 196.367C5.7799 198.721 7.06374 198.185 6.56342 198.85C3.89898 202.396 3.05292 203.327 2.59512 204.691C2.26826 205.662 2.5255 206.744 3.59808 206.753C4.77218 206.762 5.16158 205.79 7.77056 202.638C11.2244 198.465 9.39778 199.562 11.687 205.895C12.2569 207.471 12.3997 207.866 13.1407 207.756C14.4199 207.564 13.5703 203.339 13.3036 201.033C13.175 199.923 19.6142 203.592 20.5323 201.245C21.2981 199.289 17.8666 198.306 13.2977 196.753V196.756Z" fill="black"/>
<path d="M172.309 13.8142C171.391 13.5345 174.563 12.1279 176.863 8.93249C177.526 8.01091 176.694 7.03387 174.432 8.44161C169.771 11.3421 169.713 12.4194 169.574 11.7043C169.067 9.11067 168.793 7.12473 167.978 5.66505C167.117 4.12397 164.852 3.66731 165.541 8.55489C166.393 14.5906 167.388 12.2507 162.369 12.5067C160.081 12.6235 159.261 14.0018 159.956 14.908C160.365 15.4426 161.05 15.5476 162.456 15.8473C165.199 16.4314 164.668 15.4048 160.272 19.7201C159.81 20.1744 159.221 21.188 159.842 21.883C160.925 23.0949 162.786 21.2387 166.838 18.048C167.384 17.6173 166.931 18.0362 168.268 21.8311C168.716 23.1019 168.995 23.9622 169.92 23.9681C170.699 23.974 171.505 23.1362 171.298 21.5951C170.191 13.354 169.531 18.9342 176.793 16.5624C179.296 15.7446 174.662 14.5316 172.309 13.8142Z" fill="black"/>
<path d="M170.114 211.593C169.155 215.231 174.845 215.376 174.525 212.209C174.74 209.961 170.922 208.525 170.114 211.593Z" fill="black"/>
<path d="M41.022 0.40708C39.3995 0.30796 34.5733 2.13342 36.2973 5.73714C37.6295 8.52195 41.4999 9.23231 43.7525 6.71419C46.286 3.88218 43.7065 0.21592 41.022 0.40708ZM40.4474 5.97786C37.9434 6.15486 37.5304 3.25206 38.406 2.95352C39.2202 2.67622 40.0025 2.25496 40.904 2.31396C43.4741 2.4827 42.7212 6.17492 40.4474 5.97786Z" fill="black"/>
<path d="M217.354 133.942C215.433 129.628 209 131.307 207.084 133.453C203.248 137.75 209.043 146.109 214.973 141.045C216.979 139.332 218.338 136.152 217.354 133.942ZM210.969 140.188C210.143 140.301 208.134 138.362 208.643 136.082C208.977 134.585 210.443 133.422 211.138 133.547C211.586 133.628 212.057 133.561 212.516 133.593C216.891 133.896 214.569 140.021 210.969 140.188Z" fill="black"/>
</svg>
