<svg width="232" height="236" viewBox="0 0 232 236" fill="none" xmlns="http://www.w3.org/2000/svg">
<path d="M57.7217 44.329C56.2187 44.3079 56.2162 42.8608 57.3242 42.0447C59.2656 40.6126 69.7676 36.9993 78.1133 36.2975C79.933 36.1447 81.1441 36.7881 80.9441 37.1012C80.8112 37.3086 80.8944 37.639 80.5329 37.7384C61.3797 42.9937 60.0643 43.9315 57.7217 44.329Z" fill="black"/>
<path d="M214.014 93.7897C214.14 105.357 212.758 108.101 212.156 105.011C211.456 101.426 211.328 90.3515 210.997 86.2725C210.822 84.1261 210.643 79.9899 210.664 79.8856C210.951 78.4435 212.877 80.0942 213.478 83.397C214.195 87.332 213.981 90.8918 214.014 93.7897Z" fill="black"/>
<path d="M23.0343 110.849C19.611 108.998 22.6952 94.8705 23.8292 91.5441C25.0887 87.8526 26.2948 87.6874 26.1557 88.2426C26.0191 88.7916 24.9446 97.1398 24.9421 97.1684C23.7236 108.264 24.7608 110.817 23.0343 110.849Z" fill="black"/>
<path d="M155.707 37.9204C164.68 39.3737 171.838 44.0117 169.811 43.9943C168.306 43.9819 156.825 41.2269 154.203 39.8382C153.649 39.5451 153.414 38.0297 155.707 37.9204Z" fill="black"/>
<path fill-rule="evenodd" clip-rule="evenodd" d="M49.3674 179.636C50.1513 178.909 50.9804 178.137 51.8534 177.313C46.2545 178.293 40.6478 179.486 35.1407 180.939C28.9873 182.564 22.5234 184.82 18.2965 187.588C15.7005 189.288 13.1206 192.184 12.9244 194.894C12.6362 198.848 12.5343 202.897 12.9393 206.843C13.2361 209.726 18.8554 212.195 21.5818 213.183C21.7325 213.237 21.8286 213.26 21.8926 213.317C22.0736 213.481 21.9961 213.93 22.1669 216.218C22.283 217.759 22.3845 219.178 22.4795 220.506C22.8857 226.191 23.1722 230.2 23.9828 234.838C24.2921 236.608 25.7553 236.018 25.7143 235.282C24.65 216.585 23.9005 214.247 24.2002 214.104C24.2516 214.08 24.334 214.119 24.4511 214.153C65.3971 225.788 152.626 224.406 186.99 219.279C204.761 216.626 210.879 214.824 212.953 214.212C214.006 213.902 214.017 213.898 213.984 214.247C212.999 224.431 212.44 234.568 212.451 234.862C212.487 235.975 213.966 236.221 214.135 235.067C215.056 228.808 215.879 218.065 216.084 213.531C216.098 213.205 216.926 212.877 218.093 212.414C220.121 211.609 223.174 210.398 224.765 208.093C225.512 207.012 225.519 206.547 225.535 205.545C225.539 205.262 225.544 204.936 225.566 204.543C225.615 203.674 225.67 202.856 225.719 202.082C226.021 197.475 226.219 194.452 224.727 192.066C219.874 184.291 202.235 179.547 181.764 176.695C182.669 177.614 183.55 178.48 184.399 179.294C198.969 181.454 212.085 184.726 219.83 189.683C221.967 191.051 224.082 193.062 223.755 195.573C223.199 199.839 208.992 203.151 204.817 204.067C150.669 215.927 15.2086 211.558 14.3876 195.086C14.0857 189.046 27.493 185.027 33.2005 183.316C37.9735 181.887 43.4167 180.666 49.3674 179.636ZM145.158 173.415C141.096 173.406 136.829 173.398 132.45 173.389C118.62 173.363 103.673 173.335 90.5674 173.247C96.4772 172.956 102.008 172.801 106.977 172.696C114.422 172.54 128.845 172.585 145.158 173.415Z" fill="black"/>
<path d="M182.265 183.952C182.206 183.871 177.26 179.087 175.048 177.384C172.17 175.169 132.258 176.219 113.767 175.553C103.528 175.187 71.5528 174.906 62.7686 175.826C61.4768 175.962 57.3779 181.217 56.7233 182.465C54.9558 185.836 66.2937 183.343 141.482 184.35C141.503 184.35 172.809 184.935 181.467 184.825C181.954 184.82 182.608 184.419 182.265 183.952ZM167.465 177.384C174.728 177.236 173.828 177.053 177.276 180.53C174.306 180.186 169.4 180.781 169.028 180.136C167.511 177.493 167.06 177.391 167.465 177.384ZM165.788 177.365C166.09 177.371 165.933 177.266 167.672 180.094C167.836 180.364 167.477 180.309 167.329 180.309C167.332 180.228 158.903 180.085 158.658 179.53C158.104 178.272 157.654 177.365 157.631 177.242C157.569 176.928 165.769 177.364 165.788 177.365ZM144.894 176.933C145.128 176.909 145.094 176.871 145.653 179.171C143.555 179.328 138.714 179.078 134.729 178.938C134.346 178.923 134.508 179.045 133.866 177.184C133.734 176.794 144.366 176.983 144.894 176.933ZM101.859 176.374C105.984 176.558 111.18 176.329 111.125 176.847C110.915 178.796 111.019 178.76 110.701 178.75C101.814 178.469 101.897 179.098 101.859 177.984C101.812 176.619 101.422 176.353 101.859 176.374ZM91.9171 176.55C91.9742 176.306 91.9978 176.364 93.1753 176.364C99.4318 176.769 101.194 175.974 100.921 176.626C100.517 177.594 100.988 178.591 100.539 178.563C90.0949 177.894 91.2066 179.569 91.9171 176.55ZM80.8437 178.387C81.4238 176.287 81.2847 176.373 81.6387 176.373C88.5137 176.375 87.3623 176.44 88.5559 176.44C91.4463 176.44 91.1085 176.031 90.7259 177.132C90.2999 178.353 90.3756 178.466 90.0626 178.478C89.4205 178.504 80.6773 178.994 80.8437 178.387ZM62.8183 176.639C62.8183 176.639 65.0789 176.641 70.4162 176.384C71.2944 176.342 70.6137 176.586 69.6337 178.674C69.5083 178.941 69.4822 178.809 67.6613 178.934C66.8849 178.986 62.0705 179.14 60.4521 179.233C61.5861 177.819 62.5574 176.68 62.8183 176.639ZM57.8747 182.791C57.7629 182.798 57.7108 182.726 57.7915 182.622C58.4125 181.828 59.1218 180.913 59.8099 180.039C69.235 180.083 69.1245 179.62 68.9468 180.056C68.6512 180.785 68.2128 181.93 68.0413 182.633C66.331 182.811 57.8909 182.791 57.8747 182.791ZM78.6924 182.281C78.6514 182.645 78.7607 182.617 77.5521 182.617C76.4603 182.617 69.1456 182.645 68.9307 182.635C68.5829 182.619 69.0276 182.552 70.1653 180.164C70.3864 179.7 70.3107 179.792 78.8104 179.776C79.6997 179.776 78.9706 179.795 78.6924 182.281ZM79.2749 178.749C70.2014 178.741 70.7317 179.092 71.0485 178.414C71.9813 176.427 71.7603 176.373 72.1404 176.365C81.6376 176.185 80.7444 176.22 80.4761 176.822C79.5507 178.92 79.7296 178.749 79.2749 178.749ZM79.5085 182.531C79.2277 182.517 79.3445 182.455 79.6116 181.749C80.4015 179.648 80.2438 179.771 80.6301 179.76C91.0613 179.473 90.0142 179.5 89.9409 179.885C89.8415 180.413 89.5198 181.767 89.4366 182.429C87.3275 182.422 86.9313 182.474 79.5085 182.531ZM90.4452 182.435C90.5259 181.862 90.6863 181.131 90.7372 180.875C91.039 179.365 91.1271 179.493 91.4004 179.493C92.0326 179.495 100.188 179.595 100.207 179.595C100.746 179.612 100.822 179.716 100.848 180.026C100.874 180.326 100.817 181.587 101.112 182.619C97.5861 182.551 93.7032 182.46 90.4452 182.435ZM102.153 182.638C102.192 181.941 102.049 180.71 101.987 179.841C101.973 179.638 102.317 179.685 102.434 179.685C110.98 179.698 110.895 179.678 110.96 180.143C111.064 180.906 111.038 181.691 111.295 182.435C111.407 182.757 107.282 182.73 102.153 182.638ZM120.918 176.929C121.351 176.939 121.259 176.82 121.43 178.556C121.476 179.03 119.046 178.787 112.394 178.754C112.106 178.751 112.135 178.816 111.966 176.958C111.932 176.558 111.293 176.701 120.918 176.929ZM120.733 182.617C112.23 182.619 112.259 182.819 112.239 182.324C112.137 179.836 112.052 179.852 112.387 179.852C121.232 179.883 115.815 180.039 121.32 179.862C121.984 179.843 121.5 180.433 122.212 182.433C122.298 182.671 122.251 182.617 120.733 182.617ZM122.205 177.124C122.129 176.865 122.241 176.922 122.925 176.922C127.369 176.922 127.095 176.986 127.373 176.986C132.977 176.945 132.74 176.658 132.918 177.54C133.277 179.336 133.674 178.759 131.191 178.751H122.975C122.449 178.741 122.656 178.668 122.205 177.124ZM123.166 182.434C122.95 179.323 121.915 179.854 125.05 179.858C125.827 179.858 130.298 179.853 131.252 179.863C134.695 179.899 132.981 179.666 134.243 182.85C123.179 182.611 123.182 182.689 123.166 182.434ZM135.356 182.875C135.231 181.877 134.451 179.974 134.857 179.961C135.97 179.93 138.977 180.154 143.283 180.229C147.478 180.305 145.215 179.662 147.108 182.982C147.282 183.286 147.636 183.148 135.356 182.875ZM146.176 177.163C146.074 176.897 146.205 176.918 146.685 176.93C157.488 177.21 156.025 175.786 157.295 179.654C156.375 179.669 157.295 179.636 147.257 179.217C146.869 179.199 147.022 179.34 146.176 177.163ZM148.048 182.963C147.344 180.237 147.113 180.32 147.591 180.32C154.463 180.351 154.63 180.679 157.195 180.705C158.472 180.718 157.94 181.863 158.726 183.356C151.982 183.22 148.108 183.189 148.048 182.963ZM169.494 183.627C165.944 183.516 162.756 183.44 159.999 183.382C159.844 182.496 159.406 181.344 159.316 181.126C159.18 180.792 159.313 180.858 160.553 180.947C168.117 181.49 168.291 181.134 168.551 181.59C169.705 183.604 169.833 183.637 169.494 183.627ZM180.736 183.889C179.592 183.642 171.137 184.131 170.769 183.371C169.992 181.775 169.648 181.457 170.031 181.468C170.239 181.474 176.26 181.581 178.212 181.448C179.499 182.701 181.384 184.029 180.736 183.889Z" fill="black"/>
<path fill-rule="evenodd" clip-rule="evenodd" d="M181.216 174.209C180.947 173.965 180.718 173.789 180.526 173.64C180.01 173.241 179.757 173.046 179.698 172.327C181.64 146.823 182.822 119.565 180.805 93.7974C180.598 91.143 178.44 89.0774 175.781 88.9756C139.298 87.5807 95.2574 88.0937 60.0114 89.5109C57.4875 89.6128 55.3933 91.4971 55.0343 93.9974C52.9662 108.388 52.6246 156.865 55.9721 170.819L55.9795 170.85C56.09 171.308 56.1282 171.469 56.0737 171.584C56.0446 171.645 55.9892 171.695 55.9045 171.769L55.8889 171.783C38.6061 187.118 38.6349 187.691 38.7759 190.491C38.7879 190.731 38.8009 190.986 38.8037 191.269C38.8161 192.402 39.1341 194.053 39.1577 194.159C39.39 195.248 39.7502 195.537 40.4371 195.774C43.973 196.991 58.0013 196.94 73.6533 196.883C84.0585 196.846 95.181 196.805 104.415 197.133C111.561 197.386 191.185 199.582 195.426 196.936C197.14 195.866 197.141 195.101 197.144 193.409C197.144 193.188 197.145 192.952 197.149 192.696C197.216 188.636 196.192 187.713 184.092 176.803C183.195 175.995 182.238 175.133 181.216 174.209ZM62.8819 97.1561C85.8075 95.8929 138.381 96.1351 172.114 96.5872C173.359 113.972 173.349 166.557 173.344 167.067C173.039 167.255 112.182 167.043 80.4011 166.931C69.2013 166.893 61.6124 166.867 61.5566 166.874C61.5442 166.746 60.3244 115.647 62.8819 97.1561ZM189.474 192.201C181.819 192.478 55.9125 191.202 48.1642 191.085C37.108 190.92 37.8244 190.26 46.9022 181.909C49.4935 179.525 52.766 176.514 56.6403 172.708C56.8186 172.533 56.8572 172.538 57.225 172.585C57.4518 172.614 57.8041 172.659 58.3917 172.687C70.3172 173.271 103.779 173.334 132.447 173.389C157.391 173.436 178.708 173.476 179.05 173.846C183.519 178.695 187.58 182.279 190.577 184.923C196.833 190.444 198.457 191.875 189.474 192.201ZM115.489 93.4614C116.424 93.4614 117.183 92.7029 117.183 91.7672C117.183 90.8315 116.424 90.073 115.489 90.073C114.553 90.073 113.795 90.8315 113.795 91.7672C113.795 92.7029 114.553 93.4614 115.489 93.4614ZM122.121 91.7675C122.121 92.3375 121.658 92.7996 121.088 92.7996C120.518 92.7996 120.056 92.3375 120.056 91.7675C120.056 91.1973 120.518 90.7353 121.088 90.7353C121.658 90.7353 122.121 91.1973 122.121 91.7675Z" fill="black"/>
<path d="M138.623 121.877C138.073 122.631 138.712 121.898 146.078 134.102C146.395 134.628 147.22 133.741 148.545 134.497C149.156 134.845 150.016 132.392 156.06 124.791C159.186 120.859 159.182 121.485 158.748 120.578C158.084 119.194 158.724 117.675 159.761 117.08C161.196 116.257 163.187 117.063 163.629 118.625C164.186 120.595 162.207 122.569 160.37 121.906C159.744 121.68 160.068 121.638 157.677 124.918C149.741 135.804 149.388 135.019 149.713 135.785C150.316 137.215 149.513 138.907 148.021 139.339C145.619 140.034 143.709 137.335 145.242 135.157C145.617 134.624 143.578 132.903 137.756 123.322C137.33 122.62 137.018 123.538 135.661 123.103C135.325 122.996 135.365 123.003 134.302 125.037C124.895 143.037 127.11 138.964 124.084 144.204C123.897 144.528 123.882 144.526 124.118 144.787C125.129 145.902 124.827 147.458 123.99 148.36C121.758 150.765 117.957 147.468 120.141 144.799C120.769 144.03 116.341 137.893 112.977 129.669C112.792 129.217 112.364 129.573 111.586 129.495C111.046 129.44 109.256 133.655 103.929 141.506C103.796 141.701 103.771 141.839 103.945 142.06C105.194 143.649 104.097 145.888 102.334 146.276C101.14 146.538 99.8483 145.743 99.3986 144.573C98.7825 142.969 99.9054 140.495 102.672 141.166C103.249 141.306 103.019 141.387 108.736 131.596C110.311 128.898 110.42 129.003 110.17 128.781C109.293 127.997 108.988 126.442 109.968 125.199C111.997 122.625 116.312 125.591 113.969 128.593C113.719 128.913 113.726 128.905 113.916 129.25C121.203 142.524 120.737 144.24 121.522 143.957C122.257 143.691 122.969 144.235 123.136 143.869C126.994 135.409 132.077 126.308 134.36 122.778C134.703 122.247 134.135 122.45 133.827 121.122C133.538 119.878 134.277 118.46 135.576 118.055C138.003 117.299 139.915 120.109 138.623 121.877Z" fill="black"/>
<path d="M101.558 159.668C101.08 159.59 101.252 159.678 101.132 148.086C101.122 147.177 101.633 147.329 101.652 147.933C102.019 159.581 101.91 159.085 102.342 159.042C104.65 158.818 159.014 159.349 160.43 159.185C160.88 159.133 160.866 159.126 160.892 158.645C161.015 156.383 161.269 129.299 161.649 124.231C161.698 123.568 162.254 123.508 162.293 124.252C162.392 126.093 161.952 158.233 161.777 159.769C161.71 160.352 160.646 160.081 159.971 160.081C157.496 160.081 103.87 160.046 101.558 159.668Z" fill="black"/>
<path d="M116.981 112.359C117.197 114.449 114.974 118.878 112.48 121.504C112.137 121.865 111.814 121.86 111.471 121.514C109.962 119.989 109.181 118.549 108.24 116.645C106.807 113.742 106.254 111.085 108.417 108.727C111.419 105.455 117.442 107.944 116.981 112.359ZM116.184 112.143C116.391 110.683 114.954 108.339 112.496 108.128C109.681 107.887 107.834 110.202 107.914 112.2C107.978 113.828 109.144 116.45 109.614 117.346C111.961 121.828 111.904 121.081 112.474 120.453C113.357 119.478 116.447 113.921 116.184 112.143Z" fill="black"/>
<path d="M74.6513 120.516C74.7818 122.465 72.8863 124.403 70.6952 124.337C65.4759 124.182 65.7156 116.499 70.8095 116.53C72.8838 116.542 74.7656 118.261 74.6513 120.516ZM68.8445 122.544C68.9426 122.629 69.0085 122.658 69.0606 122.496C69.4792 121.19 70.0233 121.426 69.7053 121.072C69.5624 120.913 69.391 120.757 69.3202 120.565C69.1588 120.12 69.4842 119.297 69.8891 119.005C70.8108 118.344 72.7261 119.569 71.7734 120.915C71.5734 121.198 71.5361 121.039 72.5944 122.514C72.6689 122.618 72.7584 122.626 72.854 122.519C74.8737 120.287 73.1372 117.408 70.7325 117.44C68.1849 117.475 66.7491 120.709 68.8445 122.544Z" fill="black"/>
<path d="M74.6407 132.603C74.7711 134.571 72.9042 136.499 70.7231 136.458C68.6078 136.418 66.8316 134.875 66.8738 132.533C66.9707 127.214 74.8506 127.549 74.6407 132.603ZM73.7277 132.513C73.8805 129.38 69.0723 128.331 68.0091 131.494C67.6041 132.7 67.8451 133.842 68.958 134.806C69.0624 134.283 69.0984 133.93 69.6027 133.475C70.2163 132.92 69.2388 133 69.6909 131.746C70.1356 130.514 71.9267 130.883 72.0323 132.068C72.1341 133.203 71.364 133.186 71.7466 133.477C72.5266 134.07 72.2596 135.146 72.6744 134.787C73.3663 134.188 73.683 133.417 73.7277 132.513Z" fill="black"/>
<path d="M74.7629 145.833C74.8561 147.891 72.9022 149.759 70.8379 149.708C68.7089 149.655 66.9464 148.055 66.9911 145.773C67.0942 140.492 74.8536 140.751 74.7629 145.833ZM69.33 143.275C67.5786 144.393 67.555 146.558 68.8095 147.824C69.4492 148.469 69.13 147.31 69.8628 146.753C70.0914 146.579 70.1112 146.47 69.9436 146.239C69.202 145.217 70.2553 144.038 71.2738 144.367C71.7073 144.508 72.0464 145.043 72.0228 145.609C72.0129 145.84 71.8638 146.087 71.916 146.29C71.9682 146.49 72.2352 146.625 72.3421 146.823C72.7619 147.598 72.7284 148.148 72.9942 147.841C75.4411 145.018 72.0812 141.519 69.33 143.275Z" fill="black"/>
<path d="M70.7362 103.296C76.0176 103.384 75.7059 111.298 70.5574 111.096C65.3331 110.891 65.7094 103.212 70.7362 103.296ZM68.4855 105.172C66.6783 107.083 68.6942 109.945 69.0395 109.259C69.6717 108.003 69.9102 108.105 69.6506 107.853C69.3538 107.565 69.1327 106.438 69.6456 105.933C70.3847 105.203 72.0094 105.79 71.8131 107.155C71.7125 107.857 71.1374 107.952 71.3896 108.114C72.4218 108.778 72.3385 109.681 72.7025 109.301C75.5593 106.315 71.2219 102.278 68.4855 105.172Z" fill="black"/>
<path d="M75.0171 158.779C74.991 160.849 73.2595 162.672 70.9728 162.633C68.8773 162.599 67.1707 160.845 67.2117 158.672C67.3098 153.503 75.0804 153.61 75.0171 158.779ZM71.1727 155.765C68.9655 155.624 66.9719 158.387 68.9742 160.685C69.1742 160.914 69.3766 160.822 69.3878 160.775C69.6077 159.8 70.779 159.774 70.297 159.333C69.3791 158.491 70.0809 157.024 71.2063 157.225C71.9627 157.361 72.5987 158.368 71.7553 159.352C71.4547 159.703 71.9602 159.375 72.985 160.714C73.2918 161.114 74.1389 159.646 74.0768 158.562C73.9836 156.942 72.6645 155.705 71.1727 155.765Z" fill="black"/>
<path d="M76.8601 144.732C76.3608 144.646 76.4155 144.103 76.7583 143.871C77.429 143.419 83.9973 143.626 87.3398 143.598C89.4787 143.579 89.3433 144.661 87.5895 144.728C85.7884 144.798 78.814 145.067 76.8601 144.732Z" fill="black"/>
<path d="M76.7944 131.5C76.2827 131.427 76.3212 130.672 76.7534 130.568C78.3657 130.178 86.4717 130.314 88.1249 130.458C88.8168 130.519 89.1906 131.087 88.2268 131.363C87.3722 131.607 78.6216 131.761 76.7944 131.5Z" fill="black"/>
<path d="M88.1892 105.128C88.8413 105.214 91.1466 106.813 76.9779 106.167C76.5854 106.15 76.2811 106.056 76.2923 105.676C76.301 105.338 76.2985 105.163 77.5381 105.076C78.8846 104.981 86.6626 104.927 88.1892 105.128Z" fill="black"/>
<path d="M88.5022 118.439C88.7879 118.508 88.9779 118.984 88.5357 119.131C87.67 119.416 82.0445 119.698 77.0363 119.409C76.4649 119.375 76.4153 119.136 76.4202 118.917C76.4277 118.629 76.4513 118.415 76.9841 118.374C78.7256 118.238 87.0502 118.086 88.5022 118.439Z" fill="black"/>
<path d="M88.9926 156.802C89.3566 157.009 89.1827 157.525 88.0288 157.594C85.7445 157.732 79.303 158.017 77.0498 157.615C76.553 157.527 76.6262 156.83 77.0498 156.724C77.7131 156.557 88.3368 156.428 88.9926 156.802Z" fill="black"/>
<path d="M78.1032 107.741C78.451 107.728 86.0639 107.669 86.598 108.126C87.9394 109.275 78.2771 109.037 77.707 108.971C76.358 108.816 75.8811 107.833 78.1032 107.741Z" fill="black"/>
<path d="M77.2892 122.122C76.5203 122.019 76.5737 121.295 76.8942 121.23C78.0344 121 77.3463 120.917 81.0031 120.988C85.9206 121.084 86.8099 121.102 86.9192 121.664C87.0447 122.311 79.0952 122.365 77.2892 122.122Z" fill="black"/>
<path d="M87.1107 159.7C88.5043 160.647 78.1663 160.814 77.1738 160.212C76.8434 160.012 76.8782 159.654 77.2434 159.541C78.3588 159.198 86.3145 159.158 87.1107 159.7Z" fill="black"/>
<path d="M77.3153 147.465C76.7924 147.358 76.4495 146.758 77.0631 146.581C78.545 146.155 79.2853 146.398 79.7399 146.403C83.8935 146.446 84.7282 146.384 86.3392 146.579C86.6584 146.618 87.3428 147.05 86.8956 147.174C84.8971 147.73 78.6245 147.734 77.3153 147.465Z" fill="black"/>
<path d="M77.0903 134.195C76.6282 134.065 76.4903 133.444 76.9834 133.327C77.7448 133.147 77.0592 133.117 85.0074 133.203C87.1389 133.225 87.3264 133.964 86.2918 134.081C84.4882 134.286 78.7124 134.654 77.0903 134.195Z" fill="black"/>
<path d="M109.672 112.268C109.472 109.183 114.458 108.852 114.473 112.164C114.489 115.696 109.451 115.296 109.672 112.268ZM112.04 110.563C111.356 110.425 110.472 111.306 110.479 112.052C110.487 112.842 111.319 113.615 112.078 113.598C114.205 113.554 113.993 110.565 112.04 110.563Z" fill="black"/>
<path d="M23.6821 162.799C2.08185 162.399 -7.55938 137.989 7.53599 122.258C8.3446 121.415 8.57563 117.148 13.3292 116.02C14.3067 115.787 16.9139 112.537 22.081 113.945C23.9678 114.46 24.1454 115.222 25.5279 115.266C48.5913 116.002 56.2551 147.004 35.7641 159.302C30.6714 162.359 26.9054 162.507 23.6821 162.799ZM23.8535 161.114C29.094 161.25 34.127 159.174 38.1241 155.783C38.4396 155.516 38.1899 155.726 35.343 149.446C31.1894 140.283 31.1273 140.452 31.1298 140.309C31.1422 139.607 31.726 139.94 32.034 140.494C37.0981 149.579 38.6259 155.346 39.1202 154.865C41.5846 152.464 43.5235 149.67 44.8699 146.064C45.3022 144.907 44.9271 145.239 43.5831 134.595C43.4974 133.92 42.9099 134.341 42.5435 134.325C41.4989 134.279 40.4481 134.32 39.4171 134.111C39.1339 134.054 39.1525 134.332 38.4756 138.564C37.3229 145.779 37.6819 146.353 37.3291 146.9C37.0869 147.274 36.6708 146.88 36.682 146.369C36.682 146.343 36.7068 142.993 37.1838 140.541C37.303 139.928 35.5231 137.81 35.102 137.349C33.6848 135.8 32.4899 135.647 30.787 135.265C30.4491 135.189 29.2219 134.963 28.8269 135.029C29.2033 135.603 29.7063 135.917 30.0405 136.487C30.9795 138.084 30.1113 138.704 28.8008 139.923C27.9587 140.705 31.8974 140.103 30.3398 143.645C29.8902 144.668 28.1674 148.527 28.0009 147.435C27.8022 146.132 30.4503 142.527 29.7635 141.745C29.1213 141.015 28.0953 140.957 27.7463 140.822C27.3973 140.687 27.2879 140.325 27.5016 140.035C27.6395 139.847 27.8407 139.708 28.0109 139.546C29.5039 138.133 29.6877 138.114 29.5473 137.472C29.1101 135.481 25.6571 134.402 25.8384 135.065C27.3078 140.435 26.5365 155.131 25.9117 142.554C25.8732 141.778 25.3552 135.372 25.1838 135.036C24.913 135.177 24.7267 135.516 24.3752 135.837C23.579 136.567 24.087 138.563 23.3455 138.592C22.7456 138.617 22.3419 136.606 21.963 136.56C21.7295 136.532 21.4948 136.446 21.2662 136.465C20.5073 136.526 20.0601 136.218 19.4937 136.093C20.983 139.979 24.3876 146.741 24.5491 147.072C24.8398 147.671 24.2758 148.095 22.1841 143.982C18.1324 136.016 19.0677 135.182 17.992 136.367C17.166 137.277 16.4593 138.62 16.1835 139.818C16.063 140.338 16.9189 140.608 17.3114 140.596C21.3122 140.461 18.782 141.314 17.9374 143.827C17.412 145.389 19.813 145.323 23.4871 148.518C23.5318 148.557 23.6945 148.861 23.3492 148.908C22.6686 149 22.6897 148.842 17.9088 145.802C15.4681 144.249 19.2391 140.931 17.833 141.401C17.212 141.608 15.4755 141.287 15.5302 139.769C15.5699 138.665 16.4791 137.504 16.5537 137.019C15.8183 137.014 11.6461 139.53 9.40536 142.228C6.78576 145.382 6.98449 148.613 7.24037 152.638C7.28136 153.293 7.49748 153.839 8.00426 154.332C10.9021 157.151 13.6583 158.896 17.5051 160.139C19.3869 160.748 18.8329 160.581 17.9908 157.784C15.8879 150.8 12.9814 142.563 14.6719 144.219C15.0458 144.586 16.5127 149.852 17.1772 151.9C17.6952 153.494 19.0789 156.654 19.6987 160.267C19.767 160.665 20.0316 160.794 20.362 160.829C21.5606 160.954 22.7493 161.193 23.8535 161.114ZM38.9687 122.112C33.8326 117.628 27.4432 116.688 26.7464 116.864C26.9861 117.231 29.7933 119.675 31.8179 124.62C32.0961 125.298 32.0365 125.408 31.413 125.814C29.0505 127.348 29.6902 126.235 28.1872 125.416C28.1326 125.595 28.263 126.104 28.309 126.287C28.4903 127.001 28.3822 127.067 27.7686 127.579C27.5997 127.719 25.3565 128.533 24.6075 128.637C24.2175 128.692 24.1814 128.708 24.1032 129.07C23.466 132.024 24.9814 134.111 26.4942 134.092C28.6158 134.066 31.844 134.269 33.7693 135.158C35.4175 135.919 36.3243 137.388 37.3875 138.846C38.606 134.212 38.4197 133.558 39.1935 133.458C39.5811 133.408 39.5202 133.254 37.662 129.913C37.4123 129.463 37.2807 129.094 37.5192 128.802C37.9154 128.319 38.4781 128.909 38.8532 128.995C38.9439 128.386 36.9118 125.41 38.7861 125.85C39.2171 125.952 38.9339 125.512 38.9215 125.329C38.9054 125.103 39.2594 123.98 40.2344 125.317C40.8107 126.107 40.7412 126.235 41.007 126.063C41.3784 125.822 41.4728 125.845 41.7945 126.123C42.1162 126.401 42.3211 126.744 42.5087 127.113C43.5794 129.213 43.5123 130.105 43.7098 132.868C43.7781 133.822 44.1185 133.507 44.2216 134.055C45.4488 140.575 45.4376 144.566 45.7841 142.786C47.4424 134.27 44.1644 126.648 38.9687 122.112ZM11.8871 128.956C11.9666 127.631 13.6782 130.356 14.1328 130.484C14.3415 130.544 14.611 130.375 14.8532 130.313C16.5425 129.877 16.6183 129.985 16.4332 129.684C16.1487 129.22 14.4148 127.394 13.5142 122.752C13.477 122.562 13.4521 122.448 13.2695 122.376C12.8746 122.218 11.6946 121.397 11.9989 121.219C12.5976 120.87 13.2956 122.368 16.0357 121.978C19.1782 121.531 20.4464 119.047 20.8414 119.763C24.8522 127.038 23.9554 128.128 24.9739 127.749C28.6468 126.381 27.6333 127.073 27.6047 124.978C27.5985 124.559 27.9376 124.368 28.2903 124.585C28.5089 124.719 28.7114 124.885 28.9014 125.059C29.9262 125.996 29.5908 125.771 30.7099 125.368C31.1211 125.22 31.141 124.97 31.0006 124.673C24.4771 110.87 15.1787 113.878 13.3565 117.725C13.2186 118.016 13.1068 118.231 12.7851 118.222C12.5119 118.214 12.7901 117.504 12.8708 116.997C11.2536 117.125 5.93616 121.618 8.91224 131.943C9.00788 132.276 9.10228 132.329 9.42399 132.201C12.6684 130.921 11.7269 131.63 11.8871 128.956ZM1.58625 139.395C2.18867 144.26 2.44455 146.602 5.90386 151.815C6.71496 153.037 4.97104 147.604 7.495 143.096C10.6499 137.461 18.8019 135.953 19.2826 133.745C19.4428 133.009 19.3012 132.27 19.2639 131.535C19.259 131.435 19.1335 131.268 19.0453 131.257C18.0467 131.131 17.4853 130.455 17.0592 130.604C16.186 130.909 15.2842 131.093 14.385 131.29C13.5739 131.469 13.4646 130.75 12.7007 130.344C12.3889 131.412 12.8025 131.838 12.1467 132.038C10.5618 132.522 8.6514 133.577 8.24771 132.366C7.4863 130.078 6.96586 127.432 7.26272 124.779C6.87767 125.088 6.09514 126.175 5.80201 126.575C1.86945 131.935 1.8148 137.725 1.58625 139.395ZM14.9178 122.788C14.4322 122.788 14.149 122.726 14.2607 123.09C17.4629 133.548 20.4626 129.788 20.9309 130.37C21.0476 130.515 20.6737 130.915 20.5595 130.965C19.726 131.33 20.6191 133.581 19.5298 134.959C19.4291 135.087 19.5037 135.164 19.5869 135.224C20.2837 135.729 20.6216 135.772 22.1941 136.045C23.1083 136.204 22.9865 138.581 23.3381 136.264C23.4374 135.611 23.5964 135.584 24.6224 134.543C25.0484 134.111 24.0634 134.39 23.5728 132.604C22.6214 129.145 24.061 128.396 23.4424 127.133C20.7458 121.62 20.7657 120.294 20.2502 120.707C18.5398 122.08 17.0965 123.05 14.9178 122.788ZM43.0652 132.408C43.0416 132.408 42.7633 127.553 41.3995 126.461C41.366 126.532 41.2939 126.609 41.3064 126.668C41.6951 128.526 41.8554 128.75 41.6057 128.805C41.1685 128.9 40.5735 126.647 39.55 125.398C39.2457 126.089 41.2306 128.567 40.463 128.997C40.1425 129.176 39.1451 126.694 38.5812 126.426C38.534 126.633 38.3812 126.507 39.2755 128.155C39.5637 128.688 40.4654 130.622 40.4717 131.227C40.4717 131.291 40.3263 131.501 40.1673 131.349C40.0692 131.254 40.2083 131.303 38.1663 129.238C38.1228 129.193 38.0185 129.207 37.9402 129.191C37.9688 129.774 39.7127 131.669 39.9574 133.119C40.0009 133.378 39.9698 133.323 42.5957 133.387C43.1645 133.4 43.0652 132.881 43.0652 132.408Z" fill="black"/>
<path d="M19.8324 126.057C19.7753 127.061 18.6288 127.425 18.0624 126.949C17.501 126.478 17.6178 126.483 17.3246 124.332C17.2886 124.071 17.5532 123.733 17.7196 124.288C18.0922 125.533 18.045 126.884 19.0797 126.209C19.7716 125.757 19.656 125.675 19.8324 126.057Z" fill="black"/>
<path d="M57.2122 53.5529C62.7731 79.2458 32.2409 96.5856 13.1411 77.3467C2.83526 66.9651 3.59418 47.7796 17.5133 38.28C17.7008 38.152 17.8499 38.044 17.8983 37.8018C18.4237 35.1908 21.0644 32.8905 23.7263 32.8992C24.0567 32.8992 24.3299 32.7725 24.5523 32.5849C26.5955 30.8646 31.6062 30.7615 34.2444 33.3774C34.5276 33.6581 34.8419 33.7674 35.2195 33.7984C45.2544 34.617 54.7951 42.3864 57.2122 53.5529ZM23.3772 81.9089C24.1859 83.038 40.3258 87.4388 51.101 73.8849C51.306 73.6278 51.2861 73.5334 51.1135 73.2527C49.8179 71.1361 48.7013 70.3052 47.1834 68.5302C42.9081 63.5307 40.6562 60.7509 39.3209 54.2373C39.224 53.7665 39.157 53.892 36.8516 54.3491C36.3523 54.4484 38.2515 60.0491 38.2651 63.368C38.2713 64.8213 35.684 65.0337 34.0382 65.6063C33.2396 65.8845 30.4846 66.6347 29.0922 66.677C28.4351 66.6968 28.4935 66.4919 26.8253 62.7706C26.5185 62.0874 26.1521 61.4191 25.9546 60.7012C25.6913 59.7423 25.1646 58.8927 24.91 57.935C24.8553 57.7301 24.7361 57.6481 24.5249 57.745C23.8853 58.0394 23.2307 58.3151 22.6904 58.7871C22.4096 59.0318 22.591 58.9374 23.8368 62.4936C26.3757 69.7412 24.4107 74.3308 23.5847 77.5541C23.1586 79.2173 23.2481 81.7301 23.3772 81.9089ZM37.6478 35.7958C37.0503 35.6529 36.2392 35.4678 36.4939 35.8653C38.0266 38.2551 38.7781 41.3765 37.0479 44.2172C36.8417 44.5551 36.7932 44.5364 37.0069 44.7575C38.3558 46.1586 38.0825 47.6864 37.1683 48.3572C36.5622 48.8018 36.2492 48.7882 36.2976 49.1136C36.4218 49.9508 35.6865 51.6959 34.3401 51.9804C33.4383 52.1704 32.9824 52.04 33.1004 52.3369C34.3612 55.5216 38.6415 51.7705 44.4434 52.6437C48.7634 53.2933 52.712 57.0929 55.8359 60.1087C57.0582 61.2887 56.9191 40.3828 37.6478 35.7958ZM9.14147 66.7267C10.1687 70.1338 12.1275 73.1881 12.3647 73.4253C13.2143 74.2737 11.9511 63.9282 19.8658 59.2591C25.4367 55.9738 26.5223 56.1091 26.598 54.2323C26.5198 54.2584 26.439 54.2758 26.3645 54.3131C24.1362 55.3962 23.6592 53.3492 22.863 53.502C21.2359 53.8137 20.1589 52.712 20.1515 51.2438C20.1428 49.4688 21.0222 49.1335 20.3825 48.8838C17.7393 47.8516 16.7469 45.5823 16.8028 44.0831C16.886 41.8783 17.7418 40.8735 17.8325 40.6052C18.2362 39.4128 13.4218 43.6931 11.1052 48.0678C7.9267 54.0721 7.14044 60.0826 9.14147 66.7267ZM23.6604 47.043C22.9711 47.0542 22.868 47.012 23.0158 47.3573C24.8156 51.5531 27.0812 50.3955 28.1941 50.8824C28.4202 50.9817 28.4674 51.4289 28.1395 51.5767C27.5371 51.8475 27.116 51.5345 27.2812 52.1332C27.7557 53.8411 27.5905 55.8918 26.1198 56.8296C25.3584 57.3152 25.3895 57.0805 29.0412 65.3939C29.2437 65.8547 29.1655 65.9317 31.246 65.4324C35.1425 64.4971 37.5273 63.9953 37.4553 63.3717C37.228 61.3893 37.1112 62.4575 35.7871 55.0149C35.5735 53.8137 33.6805 55.7651 32.0546 52.1841C30.7293 49.2651 32.8955 49.2552 32.5204 45.5997C32.4868 45.2693 32.3825 45.2196 32.0471 45.2879C29.5281 45.7997 28.7754 44.3849 28.1122 43.4757C27.9035 43.19 27.6488 43.3291 27.4104 43.4111C27.1967 43.4831 27.1085 43.6608 27.1321 43.9129C27.4203 46.9213 27.2203 46.1201 28.2786 46.5511C28.7568 46.7462 28.609 46.884 28.4376 47.1834C28.2438 47.5187 27.0017 47.479 26.6862 46.5747C26.5595 46.2108 26.562 45.4829 26.2316 45.8109C25.9931 46.0481 25.4677 47.0145 23.6604 47.043ZM41.907 53.4809C39.8426 53.5765 39.9966 53.3219 40.7791 55.9949C43.5031 65.3045 48.7435 67.385 51.7556 72.2925C52.0575 72.7832 51.9941 72.5993 53.1331 70.7225C54.4175 68.6072 55.6136 65.1082 55.9664 62.0849C56.0185 61.6402 56.062 61.6825 53.8511 59.6752C50.3297 56.4805 46.6568 53.261 41.907 53.4809ZM22.2519 60.5956C21.9277 59.6032 21.8805 59.2728 21.5973 59.4752C17.0773 62.7097 14.3782 65.1765 13.8963 74.8935C13.8789 75.2525 13.9695 75.4835 14.2155 75.7195C16.3544 77.7677 17.3679 79.1974 22.0917 81.4332C22.232 79.621 21.8519 79.5775 22.8816 75.681C24.7274 68.6991 24.1213 66.3143 22.2519 60.5956ZM27.1458 32.6719C24.5535 33.3041 23.3425 35.2815 21.4868 38.2054C21.3775 38.3768 21.1278 38.4129 21.0943 38.0961C20.9688 36.9186 22.555 34.899 22.7289 34.3798C21.7873 34.453 19.8584 35.1548 19.015 38.2116C18.6088 39.6798 18.8436 40.9281 19.1764 42.4075C19.5354 44.0011 18.9144 43.226 18.584 42.5379C18.4771 42.3168 18.3579 42.1044 18.2486 41.8858C18.1915 41.7715 18.1679 41.7479 18.1293 41.8908C17.2549 45.1103 18.384 47.089 21.3911 48.2429C21.8718 48.428 22.1264 48.5807 21.5886 49.4564C21.0868 50.275 21.1626 51.4885 21.3315 51.7568C22.2954 53.2846 23.299 51.7568 24.0057 52.7555C24.4579 53.3951 25.1311 53.5044 25.8379 53.4262C26.049 53.4026 26.249 53.2163 26.4353 53.0809C26.6539 52.9231 26.4403 52.8548 26.4254 52.3505C26.3968 51.4438 25.8304 51.6438 24.9721 51.1494C23.412 50.2501 22.5227 48.6354 22.1413 46.8766C22.0432 46.422 21.6793 46.5412 21.2421 45.9015C18.4237 41.7802 24.1312 41.0511 25.772 35.4753C26.2391 33.8866 26.7968 35.1188 28.1035 36.0131C29.8971 37.2416 31.2721 37.095 31.9714 37.49C32.0583 37.5384 32.0683 37.6664 31.9813 37.7235C31.5913 37.9843 31.0261 37.7608 31.1392 38.1396C31.318 38.7383 31.2124 38.7669 31.7192 38.901C34.7736 39.7096 34.9077 42.8074 33.6321 44.2135C33.1327 44.7638 33.4395 44.8457 33.4867 46.4592C33.5563 48.8789 31.5652 50.6315 33.0607 51.1432C33.211 51.1954 33.4085 51.2078 33.5551 51.1531C34.7922 50.6886 35.6492 50.1446 35.2555 48.8453C35.0555 48.1858 35.2816 48.2218 35.884 48.0479C36.6044 47.8404 37.0864 47.0915 36.9597 46.3561C36.8914 45.9587 36.6019 45.6792 36.3721 45.3736C36.2566 45.2208 36.12 45.2097 36.0008 45.3662C35.7027 45.7537 35.258 45.9462 34.8704 46.2158C34.4755 46.489 33.9997 46.0816 34.5164 45.7065C40.9381 41.0499 34.0879 30.9764 27.1458 32.6719ZM26.0279 43.8856C25.9111 40.3071 20.9738 40.9095 21.1564 44.062C21.2222 45.1923 22.3028 46.253 23.6903 46.2667C24.7535 46.2766 26.0739 45.2867 26.0279 43.8856ZM26.2092 37.1198C25.0268 39.4538 23.2717 40.7232 24.0182 40.6735C25.1746 40.5965 26.1596 41.5728 26.516 42.2224C26.8017 42.7453 27.311 42.4149 27.5271 42.4124C28.3283 42.4025 27.188 40.7008 29.5207 39.265C29.8374 39.0699 30.4436 38.87 30.3678 38.6302C30.3007 38.4166 30.2722 38.2402 30.1442 38.1135C29.8325 37.803 29.3828 37.7831 28.5245 37.326C27.2663 36.6553 27.2352 36.4218 27.1905 36.7882C26.9408 38.87 27.0054 39.0935 26.5334 39.291C26.1124 39.4674 26.1372 39.2426 26.2092 37.1198ZM31.0907 44.3514C32.2397 44.5389 33.4557 43.2447 33.4644 42.1317C33.4718 40.9753 32.3465 39.7879 31.1975 39.7618C29.7604 39.7283 28.7692 40.9493 28.7754 42.0808C28.7804 43.1751 29.7828 44.4868 31.0907 44.3514Z" fill="black"/>
<path d="M117.393 4.46639C117.614 4.46639 117.857 4.70487 118.061 4.44776C118.297 4.14841 118.598 3.88136 118.542 3.4342C118.429 2.53243 118.791 1.31268 119.339 0.728894C120.15 -0.134369 120.925 0.788515 121.476 1.32138C121.761 1.16239 121.787 0.83323 121.951 0.593504C122.365 -0.0114011 123.027 -0.215106 123.669 0.271799C124.223 0.690389 124.555 1.27045 124.709 1.47788C124.914 1.75363 125.055 1.43193 125.46 1.21828C125.744 1.06799 126.038 0.941294 126.326 0.802178C126.982 0.486683 127.796 0.817083 128.141 1.46546C128.646 2.41319 128.426 2.73986 128.838 2.54113C130.074 1.94492 131.035 2.00578 131.38 3.3311C131.486 3.73976 131.388 3.98818 131.918 3.86397C133.272 3.54723 134.128 4.69369 133.727 5.61285C133.282 6.63384 133.212 6.39163 131.605 9.21493C131.311 9.73165 135.084 11.1191 138.994 16.6514C139.615 17.5296 139.087 16.8626 142.558 18.4214C144.114 19.1207 155.835 24.114 155.109 25.8418C152.517 32.0187 151.627 31.8461 151.891 32.4771C152.941 34.9824 152.205 34.3638 151.62 36.8592C151.004 39.485 151.618 47.2743 146.608 53.0762C144.917 55.0362 144.348 55.9976 142.286 57.4061C134.939 62.4267 132.399 58.5861 131.101 59.4618C113.972 71.0209 89.3412 62.1708 85.1901 40.2278C82.0003 23.3687 93.4351 6.79283 111.37 4.61047C113.654 4.33224 115.092 4.4726 117.393 4.46639ZM92.4166 38.7746C92.5756 39.4639 93.255 41.229 93.8562 43.7989C94.0773 44.7429 94.0873 45.1354 94.763 44.9143C100.068 43.1791 101.839 43.3082 109.443 41.1842C110.73 40.8253 107.023 37.2232 103.473 20.0386C103.325 19.3207 102.875 19.7368 101.167 20.2697C99.2519 20.8671 94.8102 22.1515 91.8775 23.4172C87.288 25.3983 87.3476 25.2865 87.524 25.8244C88.535 28.9048 88.8592 29.5643 89.5647 31.3654C89.7287 31.784 89.6033 31.625 91.1845 30.599C91.7894 30.2065 92.6452 30.2773 92.4837 31.2226C92.4005 31.7107 92.4911 31.5207 93.1619 31.5741C93.7544 31.62 93.6836 32.2995 93.4115 32.7516C93.0985 33.272 94.5692 32.7677 94.0065 34.0359C93.6662 34.8023 93.4761 34.8247 93.9494 34.8371C95.8622 34.8843 92.9135 37.4467 92.4166 38.7746ZM146.952 34.1142C147.254 34.2123 146.948 33.8645 146.81 33.441C146.616 32.846 146.989 32.3218 147.335 32.3678C147.665 32.4113 147.623 32.261 147.556 32.0846C147.217 31.1965 147.785 30.6288 148.367 30.9207C148.762 31.1182 148.632 30.5518 148.664 30.404C148.768 29.9146 149.437 29.8314 149.751 30.0686C150.212 30.4177 150.692 30.7443 151.03 31.2412C151.422 31.8175 151.251 32.2908 154.342 26.0976C154.554 25.6716 154.544 25.6058 154.011 25.2368C150.28 22.6545 143.799 19.8523 139.809 18.0239C138.988 17.6476 137.814 24.114 134.304 30.373C133.743 31.3741 131.759 35.4345 130.31 37.9287C130.083 38.3187 130.4 38.31 132.85 39.2776C135.262 40.2315 137.217 41.019 138.107 41.3097C145.277 43.6535 145.016 44.3069 145.199 43.8697C145.355 43.4958 145.566 43.1443 145.736 42.7754C147.846 38.2156 147.93 38.3075 147.603 37.7697C147.039 36.8418 145.766 35.0768 146.064 34.3986C146.328 33.8012 146.833 34.0744 146.952 34.1142ZM115.358 23.1588C116.177 23.1663 115.879 23.4532 117.228 19.9567C117.875 18.2773 117.973 18.3196 117.142 17.8563C115.644 17.0203 114.968 14.6901 115.034 13.9287C115.039 13.8691 114.863 13.217 114.93 12.9127C115.074 12.2606 115.013 11.5849 115.218 10.9402C115.425 10.2906 115.605 9.6298 115.748 8.96278C116.234 6.69097 117.534 6.29474 116.053 6.28232C95.6771 6.11342 88.1935 24.0693 89.3138 23.6122C92.829 22.1763 96.9031 20.6771 101.951 19.3915C103.95 18.8822 103.606 18.6288 104.501 21.949C104.573 22.2173 104.774 23.252 105.058 23.1389C105.476 22.9737 105.923 23.0992 106.333 22.9986C109.133 22.3092 113.234 22.8831 115.358 23.1588ZM127.988 52.788C128.296 55.8038 127.858 56.1491 128.554 56.6944C129.69 57.5825 132.544 58.6408 134.09 58.8333C138.506 59.3836 142.497 56.3019 145.348 52.8861C151.927 45.005 149.263 38.8429 151.666 34.4334C152.171 33.508 149.758 30.3556 149.426 30.7034C148.929 31.2238 151.198 33.4708 150.455 34.0098C150.132 34.2434 150.114 33.1043 148.535 31.6262C148.436 31.5331 148.156 31.3691 148.041 31.5952C147.757 32.1504 149.726 34.1266 149.813 35.0706C149.825 35.206 149.644 35.3066 149.54 35.2209C149.004 34.7837 147.858 32.8447 147.418 32.9963C146.771 33.2186 149.259 35.9289 148.962 36.4891C148.824 36.7487 148.737 36.7027 148.567 36.4965C148.152 35.996 146.912 34.1788 146.631 34.5762C146.348 34.9762 147.593 36.6878 147.904 37.1623C148.291 37.7523 148.598 38.1709 148.506 38.5112C148.319 39.2155 146.16 43.7492 145.821 44.3963C145.559 44.8981 145.176 45.1391 144.555 44.8696C141.952 43.738 142.224 43.302 139.655 45.7689C135.949 49.33 135.915 49.5175 134.805 51.1385C134.215 51.9992 134.1 52.8066 133.723 52.6228C133.476 52.5023 133.378 52.1235 133.487 51.8502C135.179 47.5885 138.032 46.3998 138.111 45.708C138.136 45.4869 131.208 46.2731 130.337 46.298C129.804 46.3141 128.962 46.3328 128.92 44.9416C128.916 44.8174 128.417 38.6193 128.25 38.2678C128.181 38.12 126.84 38.192 126.89 38.9385C127.316 45.2894 127.967 52.5806 127.988 52.788ZM119.969 4.54092C119.572 4.58563 119.177 4.57694 118.906 4.93839C116.966 7.52815 115.996 10.1651 115.948 13.7163C115.927 15.2863 117.277 17.7407 119.124 17.8463C119.249 17.8538 119.377 17.8848 119.496 17.9295C119.624 17.9767 119.829 17.9295 119.831 18.1556C119.835 18.4984 119.288 18.5916 119.142 18.5841C118.507 18.5531 118.69 18.4649 118.157 20.2759C117.337 23.0644 116.241 25.4828 116.589 27.4987C116.799 28.7172 117.814 29.896 118.84 29.7606C119.627 29.6563 119.996 29.4352 120.997 28.6899C123.911 26.5187 122.822 25.4567 126.424 17.9705C126.921 16.9383 127.633 17.2228 128.259 17.2427C129.898 17.2961 130.994 13.5983 127.747 14.6616C127.373 14.7845 127.207 14.7709 127.128 14.274C126.654 11.2507 129.994 7.87222 127.794 7.04001C127.34 6.8686 124.726 5.50976 119.969 4.54092ZM127.468 18.2699C127.08 18.1655 127.376 18.2388 124.346 26.0517C124.063 26.782 125.573 26.0455 132.508 31.3356C132.763 31.5306 132.848 31.5852 133.086 31.081C138.091 20.4299 136.798 21.9415 138.037 19.2412C138.196 18.8959 138.139 18.6276 137.937 18.3419C135.836 15.3472 133.823 13.3536 131.083 11.3576C130.844 11.1837 130.798 11.1911 130.678 11.488C129.829 13.5847 129.715 13.6455 130.06 13.9672C131.516 15.3261 129.985 18.9468 127.468 18.2699ZM91.8192 31.0064C90.5895 31.625 89.7635 32.5665 89.248 33.6322C88.7984 34.5601 89.248 35.3377 89.2791 36.4108C89.597 47.2035 88.7735 48.2468 94.9431 54.8114C95.466 55.3678 95.1989 54.2214 97.0385 48.2357C98.0719 44.872 98.2495 44.9255 97.7067 45.0671C94.0512 46.0173 94.0599 46.18 93.8239 45.7788C93.2799 44.8584 92.0713 40.6613 91.8353 39.5484C91.5856 38.3734 92.085 38.0256 93.0203 36.7822C93.7047 35.873 93.8984 35.6134 93.8214 35.5737C93.7717 35.5476 93.691 35.5165 93.655 35.5401C93.1669 35.8544 92.7011 36.1972 92.2825 36.6083C91.5931 37.284 91.2167 36.8269 91.7546 36.114C93.4028 33.9328 93.3296 34.385 93.2749 33.8446C92.7259 33.9925 91.2105 35.4817 91.1857 35.5028C90.9174 35.7227 89.9982 35.5165 92.3061 33.205C92.4079 33.1031 93.019 32.3926 92.9172 32.3318C92.8501 32.292 92.742 32.2374 92.6936 32.2647C90.6305 33.4186 90.869 34.3614 90.3622 34.2533C89.6678 34.1042 91.3087 32.102 91.839 31.3219C91.8763 31.2673 91.8328 31.1592 91.8192 31.0064ZM88.458 44.8012C88.6506 42.6748 88.4456 44.7963 88.4009 35.7786C88.3959 34.8433 88.0196 34.6321 88.6195 33.2646C88.9735 32.4585 89.3672 32.3988 89.0331 31.825C88.5015 30.9133 87.6556 28.9184 87.4221 28.5297C87.0867 29.3172 85.4919 36.4965 88.458 44.8012Z" fill="black"/>
<path d="M119.95 11.5834C120.243 10.3127 120.513 9.97737 121.401 8.45703C121.546 8.20737 121.813 8.17135 121.936 8.26699C122.237 8.5005 121.626 9.06318 120.98 11.1027C120.541 12.4889 121.479 12.5473 121.71 12.8156C121.81 12.9299 121.82 13.0677 121.684 13.1435C120.892 13.5857 119.966 12.5299 119.95 11.5834Z" fill="black"/>
<path d="M177.348 72.1418C162.032 55.2591 174.332 28.0049 198.018 28.6247C199.234 28.657 198.819 24.9828 204.464 24.9878C207.383 24.9903 211.296 27.1379 211.272 30.3525C211.267 30.9735 211.358 31.5995 211.158 32.2131C211.041 32.5721 211.208 32.8168 211.524 33.0143C230.162 44.6155 225.924 75.6123 201.8 80.2789C192.446 82.0886 183.156 78.5449 177.348 72.1418ZM211.003 34.6216C210.296 34.162 210.597 35.3072 209.758 36.7505C209.737 36.7866 209.743 36.8362 209.727 36.8747C209.523 37.379 209.537 37.779 210.06 38.133C211.144 38.8683 210.502 40.5688 209.463 41.4035C208.178 42.4344 207.736 41.6991 207.086 42.1761C206.257 42.7834 205.478 43.4765 204.484 43.8343C204.001 44.0082 203.549 46.3942 203.561 46.8985C203.621 49.3008 214.061 53.8071 215.772 59.5022C217.38 64.8457 217.278 67.474 217.501 67.9547C218.227 67.5001 219.818 63.7129 219.987 63.2844C224.121 52.7911 219.801 40.3452 211.003 34.6216ZM196.727 30.1487C193.796 30.4133 192.469 30.4419 189.845 31.2244C186.253 32.2951 182.686 34.3955 180.605 36.2512C173.577 42.5139 172.235 50.9938 172.355 52.1874C173.207 51.5378 176.584 46.1284 181.998 44.1187C185.907 42.6679 192.119 44.6255 195.161 45.018C195.608 45.0751 196.076 45.0366 196.414 44.5845C197.025 43.7659 197.511 42.889 197.865 41.9363C198.041 41.4606 195.527 40.1266 196.183 36.4077C196.809 32.859 196.86 33.6266 197.496 31.1076C197.741 30.1388 198.024 30.3015 196.727 30.1487ZM194.11 49.2685C194.57 52.7178 194.443 52.8457 195.285 54.3139C195.688 55.0157 196.837 55.4107 197.602 55.1151C199.917 54.2195 202.74 51.4037 203.887 49.974C204.181 49.6076 204.186 49.6175 203.856 49.2797C202.996 48.4002 202.457 47.5668 202.676 46.3992C203.56 41.6842 203.137 44.3572 206.294 41.6295C207.453 40.6284 207.879 41.9227 209.286 40.411C209.645 40.026 209.756 39.236 209.505 38.8696C209.018 38.1603 208.483 38.0746 208.66 37.4734C209.307 35.2799 211.039 31.5523 208.779 31.3362C205.263 31.0008 208.746 31.5859 204.864 30.853C201.862 30.2866 200.671 24.8934 198.569 31.0691C197.321 34.7346 195.83 38.8373 198.915 41.1985C199.487 41.637 199.839 41.9015 200.06 42.073C201.133 42.9014 200.185 42.9673 199.71 42.7586C198.893 42.4009 198.634 42.1015 198.571 42.4853C198.28 44.2529 196.767 46.398 194.981 45.9247C194.079 45.6862 194.31 46.4613 194.11 49.2685ZM216.339 67.3125C216.032 65.2308 216.079 63.7253 215.585 63.4869C209.3 60.4487 198.707 57.8166 178.122 48.0711C177.77 47.9046 177.896 47.8711 175.665 50.1578C174.718 51.1279 174.598 51.3142 174.961 51.4633C174.987 51.4745 174.977 51.4359 180.798 53.6779C182.275 54.2468 182.274 54.4878 182.6 54.1276C182.849 53.8518 183.024 53.55 183.314 53.7251C183.473 53.8208 183.483 53.9537 183.395 54.1127C182.946 54.9225 182.429 54.0878 195.196 59.2823C196.256 59.7133 198.916 61.4076 205.349 63.6434C205.611 63.734 205.608 63.7216 205.7 63.3887C205.96 62.4398 206.455 62.7751 206.459 63.734C206.46 64.062 206.469 64.0719 208.131 64.719C216.95 68.1559 216.339 68.2205 216.339 67.3125ZM204.166 74.4037C204.145 73.5541 204.123 73.9764 202.43 73.2138C193.227 69.0602 189.829 67.8442 179.951 64.3315C177.656 63.5154 178.468 62.3988 176.034 67.2405C175.82 67.6641 175.41 67.2231 184.203 70.4426C190.01 72.5691 198.223 76.1377 198.871 76.4047C203.369 78.2605 203.323 78.5548 203.474 77.9301C203.55 77.6183 203.451 77.9263 204.166 74.4037ZM178.402 62.8497C178.462 63.1565 178.415 63.0298 182.532 64.4694C197.579 69.7309 201.683 72.1543 203.6 72.8983C204.551 73.2684 204.208 73.7305 205.025 69.1844C205.202 68.1969 182.181 60.753 180.743 59.7183C179.97 59.1631 179.996 60.4226 178.882 61.8808C178.739 62.0684 178.491 62.5503 178.402 62.8497ZM205.534 64.6793C205.534 64.6793 205.477 64.5576 205.393 64.5128C205.167 64.3936 204.931 64.2855 204.689 64.1986C197.017 61.4187 197.223 60.5455 183.414 55.5945C182.47 55.2567 182.812 55.2641 180.738 58.7706C180.519 59.1395 180.047 58.8985 189.601 62.3218C189.637 62.3342 203.081 67.1709 204.89 68.0292C205.186 68.1696 205.208 68.3124 205.534 64.6793ZM201.929 78.3623C201.901 78.3499 176.223 68.1075 176.729 68.7422C180.76 73.7914 185.289 77.5872 193.037 78.7834C197.923 79.5373 202.63 78.6691 201.929 78.3623ZM215.546 62.5304C214.918 60.2723 214.419 57.7458 212.978 57.2925C203.907 54.4369 202.37 52.8495 201.621 53.5364C197.4 57.408 194.891 54.3437 208.761 59.9096C215.509 62.6174 215.25 62.7652 215.546 62.5304ZM193.611 51.7092C193.489 49.8461 193.52 49.7653 193.221 49.6423C191.453 48.9219 182.694 45.7893 182.309 45.6055C181.514 45.2254 181.233 45.4912 179.042 47.0588C177.959 47.8338 177.94 46.8774 189.892 52.2657C195.998 55.0182 193.798 54.6021 193.611 51.7092ZM204.962 77.7413C206.755 77.114 208.479 76.3352 210.06 75.2695C214.142 72.517 214.304 72.2747 213.465 72.0077C206.183 69.6837 205.841 69.2477 205.654 70.6327C204.682 77.8481 204.597 77.8704 204.962 77.7413ZM172.357 56.31C172.098 57.2589 172.947 62.2696 175.146 66.1226C175.245 66.0679 178.046 61.4101 178.062 61.384C179.348 59.2438 179.349 59.2712 178.975 59.096C175.534 57.485 176.061 57.8229 172.357 56.31ZM205.955 68.3373C205.947 69.1273 205.879 68.5584 212.076 70.4613C214.59 71.2326 214.785 71.5084 214.997 71.2699C216.463 69.6241 216.422 69.6378 216.453 69.1359C216.488 68.5621 216.579 68.8341 214.324 67.9373C205.571 64.4582 206.352 64.5426 206.222 65.8133C206.155 66.4741 206.19 66.0183 205.955 68.3373ZM172.122 54.7536C172.208 55.4368 172.305 55.315 172.866 55.5175C179.976 58.0899 179.522 58.783 179.986 58.075C181.944 55.0927 182.006 55.1635 181.725 54.966C181.699 54.9474 175.072 52.4222 174.505 51.9303C174.25 51.7092 174.012 51.9899 173.784 52.2781C171.961 54.5971 172.429 53.9661 172.122 54.7536ZM183.008 45.0789C183.07 45.1335 191.977 48.3207 193.166 48.907C193.571 49.107 193.198 48.3717 193.483 46.9209C193.54 46.6302 193.487 46.3185 193.488 46.0166C193.488 45.8688 193.443 45.7421 193.283 45.7546C193.143 45.7657 184.63 43.9374 183.008 45.0789ZM205.191 50.3603C204.554 49.8895 205.068 50.2733 203.036 52.252C202.722 52.5588 202.394 52.7936 202.753 52.8867C210.228 54.8107 219.471 60.9157 205.191 50.3603Z" fill="black"/>
<path d="M201.362 36.3125C201.63 35.4679 201.524 35.6927 202.721 33.6296C202.973 33.1948 203.471 33.5203 203.323 33.8842C202.744 35.3101 202.661 35.2542 202.353 35.9709C201.909 37.0056 203.219 37.3037 203.357 37.382C203.552 37.4937 203.57 37.7335 203.383 37.8627C202.393 38.5433 201.057 37.2714 201.362 36.3125Z" fill="black"/>
<path d="M200.138 115.129C200.944 114.744 200.09 114.492 200.863 113.34C202.212 111.331 203.76 112.603 203.844 111.903C204.039 110.284 206.142 110.054 207.358 110.759C207.743 110.983 207.908 110.764 208.169 110.483C209.298 109.266 211.15 110.055 211.602 110.805C211.873 111.255 212.78 110.154 214.212 111.333C214.295 111.401 214.397 111.447 214.474 111.518C214.587 111.621 214.693 111.654 214.809 111.537C215.499 110.842 216.834 111.339 217.354 112.091C218.202 113.315 217.695 113.404 218.168 113.453C219.029 113.544 219.855 113.667 220.131 114.522C220.335 115.159 221.107 115.302 221.168 116.108C221.226 116.878 229.415 120.352 231.419 131.216C233.583 142.949 225.929 153.944 215.556 156.814C201.936 160.581 188.375 149.974 187.746 137.413C187.216 126.813 192.381 118.832 200.138 115.129ZM210.288 156.197C214.208 155.781 212.393 155.974 215.31 155.403C215.855 155.296 215.245 155.395 216.219 144.886C216.246 144.584 216.323 144.188 216.622 144.22C216.907 144.252 216.921 144.648 216.923 145.138C216.936 147.516 216.713 145.769 223.822 147.438C224.345 147.561 224.379 147.516 224.147 145.871C223.828 143.596 223.77 142.866 222.71 140.487C222.062 139.032 221.476 137.75 219.183 136.745C215.933 135.32 215.986 135.362 215.669 135.682C209.524 141.877 209.217 141.733 208.442 140.492C206.98 138.151 206.213 136.559 205.456 133.825C205.373 133.525 205.245 133.45 204.968 133.451C199.076 133.466 197.291 132.979 194.121 139.593C193.928 139.995 194.113 139.819 196.476 140.528C200.934 141.867 198.385 141.711 200.624 139.229C200.662 139.188 200.77 139.213 200.846 139.208C200.858 139.491 200.875 139.222 199.813 142.218C199.045 144.389 198.612 145.084 198.886 146.626C199.37 149.362 196.471 151.089 197.147 151.603C200.998 154.537 204.559 156.041 210.288 156.197ZM189.19 135.154C189.346 137.129 189.675 141.541 191.183 143.784C191.897 142.726 193.417 138.207 195.696 135.393C197.235 133.494 197.809 133.535 198.991 133.031C200.364 132.446 200.998 132.75 201.518 132.638C202.669 132.39 203.792 132.632 205.419 132.717C208.281 132.865 207.839 132.912 208.83 130.083C209.129 129.231 206.662 129.744 205.984 126.013C205.872 125.402 205.871 125.014 205.966 121.714C205.992 120.822 204.424 122.333 204.66 119.435C204.695 119.014 204.184 118.619 203.917 118.814C203.341 119.231 204.546 119.544 203.736 120.771C203.437 121.223 203.66 121.678 204.043 122.323C204.425 122.967 203.724 123.067 203.515 123.633C203.378 124.005 204.367 124.66 203.924 125.549C202.27 128.855 202.213 128.346 202.168 128.941C202.08 130.139 200.068 129.687 201.371 128.621C201.759 128.305 201.397 127.936 201.212 127.316C200.934 126.386 201.735 126.017 201.89 125.876C202.617 125.223 200.796 125.515 201.212 123.831C201.505 122.643 201.568 122.61 201.171 122.415C198.491 121.101 199.323 119.729 199.42 118.827C199.54 117.698 200.459 118.305 200.046 117.065C199.957 116.801 199.924 116.774 199.692 116.906C193.317 120.565 189.437 126.548 189.19 135.154ZM229.743 135.53C229.829 127.677 224.181 119.981 220.815 118.416C220.963 119.339 220.742 119.696 220.134 120.589C219.78 121.109 220.169 121.195 220.03 121.935C219.739 123.49 218.866 123.443 219.097 123.974C219.311 124.464 219.333 126.086 218.71 126.75C218.462 127.012 218.132 127.225 217.967 127.53C217.787 127.86 217.705 128.25 217.489 128.572C216.548 129.969 214.922 128.68 214.869 128.691C214.715 128.725 213.836 130.037 213.787 130.111C213.573 130.437 213.282 132.504 213.242 132.816C213.155 133.484 212.954 133.341 216.953 134.867C221.861 136.739 223.966 137.029 225.419 147.816C225.443 147.992 225.486 148.164 225.524 148.341C227.61 146.14 229.685 140.937 229.743 135.53ZM206.851 133.575C205.71 133.492 206.13 133.58 207.603 137.279C208.026 138.345 208.64 139.306 209.237 140.276C209.401 140.542 209.194 140.83 214.304 135.949C215.003 135.28 215.193 135.13 214.92 135.013C213.355 134.343 212.266 134.148 212.458 132.768C212.815 130.213 212.897 129.96 213.183 129.604C213.531 129.172 214.736 127.639 214.996 127.111C215.553 125.976 216.032 127.142 216.668 126.004C216.974 125.455 216.774 124.991 215.828 124.725C215.274 124.57 215.37 124.125 215.307 123.745C215.182 122.971 214.865 122.775 214.91 122.208C214.95 121.702 214.059 122.379 213.228 121.569C212.969 121.317 212.638 121.14 212.362 120.903C211.844 120.458 211.796 120.978 210.59 120.443C210.148 120.248 210.135 120.267 209.893 121.012C209.569 122.013 208.38 122.236 208.304 122.197C207 121.541 207.416 121.713 206.929 121.096C206.641 120.732 206.64 122.449 206.672 122.723C206.724 123.162 206.126 127.62 208.773 128.758C208.965 128.841 209.108 129.033 209.301 129.122C209.607 129.264 209.638 129.517 209.571 129.774C209.051 131.763 208.907 133.334 206.851 133.575ZM196.408 150.964C196.66 150.458 196.953 149.457 197.647 148.591C198.341 147.725 198.047 147.366 198.045 144.458C198.045 144.292 198.334 143.744 198.856 142.434C199.067 141.903 198.515 142.096 198.011 141.937C193.631 140.558 193.725 140.408 193.569 140.79C193.558 140.816 191.905 144.728 191.892 144.754C191.409 145.785 195.297 150.042 196.408 150.964ZM216.487 154.716C216.475 155.087 216.428 155.075 217.657 154.557C220.176 153.496 222.341 151.935 224.218 149.958C224.756 149.392 224.418 148.833 224.418 148.648C224.418 148.37 224.283 148.274 224.021 148.258C222.004 148.14 220.947 147.849 217.629 147.27C216.644 147.099 216.758 146.832 216.487 154.716Z" fill="black"/>
<path d="M210.039 123.551C210.102 123.489 210.365 123.541 210.336 123.713C210.297 123.944 210.088 124.635 210.11 125.547C210.13 126.358 211.099 125.635 211.274 126.179C211.402 126.573 210.235 127.061 209.705 126.249C209.286 125.609 209.669 123.914 210.039 123.551Z" fill="black"/>
</svg>
